<svg width="599" height="417" viewBox="0 0 599 417" fill="none" xmlns="http://www.w3.org/2000/svg">
<path d="M388.918 208.719C161.251 247.667 1.89873e-06 159.727 1.89873e-06 159.727L2.77506e-06 233.215C173.517 279.267 296.475 257.711 359.001 245.463L388.918 208.719ZM443.965 298.374C437.682 302.538 431.101 306.702 424.22 309.887C385.684 329.847 340.327 339.123 294.856 336.343C249.384 333.564 206.212 318.877 171.722 294.455C203.055 305.038 237.024 309.337 270.797 306.993C304.57 304.649 337.171 295.731 365.882 280.982C369.771 279.022 373.062 276.817 376.652 274.858C400.662 260.772 420.834 242.754 435.887 221.946C422.138 186.674 395.049 155.894 358.535 134.053C322.021 112.213 277.972 100.444 232.752 100.446C210.614 100.446 189.373 103.141 169.628 108.04C205.711 86.8005 249.044 75.4017 293.484 75.4604C363.788 75.4604 426.015 103.386 464.907 146.254C468.197 110.735 458.624 73.0108 433.793 40.1861C421.527 24.9986 407.466 11.7708 391.611 0.502627C431.4 13.9754 467.001 37.2466 491.533 69.0914C519.654 105.835 528.929 147.479 521.749 187.652C538.502 177.609 554.358 165.361 568.419 150.663C580.984 136.455 591.155 121.023 598.335 104.856C597.139 140.13 583.377 175.404 555.554 205.534C541.494 220.967 524.441 233.215 506.491 243.013C506.491 245.463 506.79 247.667 506.79 250.117C506.79 328.504 443.666 394.888 356.608 416.934C380.342 403.152 400.349 385.51 415.38 365.11C430.411 344.711 440.142 321.992 443.965 298.374Z" fill="#FBEACC"/>
</svg>
