<svg width="369" height="265" viewBox="0 0 369 265" fill="none" xmlns="http://www.w3.org/2000/svg">
<path d="M86.104 112.296C86.4931 111.995 86.9875 111.858 87.4792 111.914C87.9709 111.97 88.4201 112.215 88.7288 112.596C90.2315 114.603 91.3148 116.884 91.9161 119.306C92.8535 123.018 93.0879 128.783 88.846 135.054C82.2137 144.831 88.471 152.855 88.7523 153.178C89.0538 153.567 89.1905 154.055 89.1337 154.541C89.0769 155.027 88.831 155.472 88.4476 155.783C88.0585 156.085 87.5641 156.222 87.0724 156.166C86.5806 156.11 86.1314 155.864 85.8228 155.484C84.3201 153.476 83.2368 151.196 82.6355 148.774C82.2595 147.288 82.0706 145.763 82.073 144.231C82.073 141.003 82.9402 137.13 85.7056 133.025C92.3379 123.249 86.0806 115.225 85.7993 114.902C85.4978 114.513 85.361 114.025 85.4179 113.539C85.4747 113.053 85.7206 112.608 86.104 112.296ZM77.642 153.178C77.3608 152.855 71.1034 144.831 77.7358 135.054C81.9777 128.783 81.7433 123.018 80.8059 119.306C80.2046 116.884 79.1213 114.603 77.6186 112.596C77.3099 112.215 76.8607 111.97 76.369 111.914C75.8772 111.858 75.3829 111.995 74.9938 112.296C74.6104 112.608 74.3644 113.053 74.3076 113.539C74.2508 114.025 74.3876 114.513 74.6891 114.902C74.9703 115.225 81.2277 123.249 74.5954 133.025C71.8299 137.13 70.9628 141.003 70.9628 144.231C70.9604 145.763 71.1493 147.288 71.5253 148.774C72.1265 151.196 73.2098 153.476 74.7125 155.484C75.0212 155.864 75.4704 156.11 75.9622 156.166C76.4539 156.222 76.9483 156.085 77.3374 155.783C77.7208 155.472 77.9667 155.027 78.0235 154.541C78.0803 154.055 77.9436 153.567 77.642 153.178ZM66.5318 153.178C66.2506 152.855 59.9932 144.831 66.6256 135.054C70.8674 128.783 70.6331 123.018 69.6956 119.306C69.0944 116.884 68.0111 114.603 66.5084 112.596C66.1997 112.215 65.7505 111.97 65.2588 111.914C64.767 111.858 64.2727 111.995 63.8836 112.296C63.5001 112.608 63.2542 113.053 63.1974 113.539C63.1406 114.025 63.2773 114.513 63.5789 114.902C63.8601 115.225 70.1175 123.249 63.4851 133.025C60.7197 137.13 59.8526 141.003 59.8526 144.231C59.8555 148.279 61.1689 152.22 63.6023 155.484C63.911 155.864 64.3602 156.11 64.8519 156.166C65.3437 156.222 65.838 156.085 66.2271 155.783C66.6105 155.472 66.8565 155.027 66.9133 154.541C66.9701 154.055 66.8334 153.567 66.5318 153.178Z" fill="#FFF6E7"/>
<path d="M194.161 112.296C194.55 111.995 195.044 111.858 195.536 111.914C196.028 111.97 196.477 112.215 196.786 112.596C198.288 114.603 199.372 116.884 199.973 119.306C200.91 123.018 201.145 128.783 196.903 135.054C190.271 144.831 196.528 152.855 196.809 153.178C197.111 153.567 197.247 154.055 197.191 154.541C197.134 155.027 196.888 155.472 196.504 155.783C196.115 156.085 195.621 156.222 195.129 156.166C194.638 156.11 194.188 155.864 193.88 155.484C192.377 153.476 191.294 151.196 190.692 148.774C190.316 147.288 190.127 145.763 190.13 144.231C190.13 141.003 190.997 137.13 193.762 133.025C200.395 123.249 194.137 115.225 193.856 114.902C193.555 114.513 193.418 114.025 193.475 113.539C193.532 113.053 193.777 112.608 194.161 112.296ZM185.699 153.178C185.418 152.855 179.16 144.831 185.793 135.054C190.035 128.783 189.8 123.018 188.863 119.306C188.261 116.884 187.178 114.603 185.675 112.596C185.367 112.215 184.918 111.97 184.426 111.914C183.934 111.858 183.44 111.995 183.051 112.296C182.667 112.608 182.421 113.053 182.365 113.539C182.308 114.025 182.444 114.513 182.746 114.902C183.027 115.225 189.285 123.249 182.652 133.025C179.887 137.13 179.02 141.003 179.02 144.231C179.017 145.763 179.206 147.288 179.582 148.774C180.183 151.196 181.267 153.476 182.769 155.484C183.078 155.864 183.527 156.11 184.019 156.166C184.511 156.222 185.005 156.085 185.394 155.783C185.778 155.472 186.024 155.027 186.08 154.541C186.137 154.055 186 153.567 185.699 153.178ZM174.589 153.178C174.307 152.855 168.05 144.831 174.682 135.054C178.924 128.783 178.69 123.018 177.753 119.306C177.151 116.884 176.068 114.603 174.565 112.596C174.257 112.215 173.807 111.97 173.316 111.914C172.824 111.858 172.33 111.995 171.94 112.296C171.557 112.608 171.311 113.053 171.254 113.539C171.197 114.025 171.334 114.513 171.636 114.902C171.917 115.225 178.174 123.249 171.542 133.025C168.777 137.13 167.909 141.003 167.909 144.231C167.912 148.279 169.226 152.22 171.659 155.484C171.968 155.864 172.417 156.11 172.909 156.166C173.401 156.222 173.895 156.085 174.284 155.783C174.667 155.472 174.913 155.027 174.97 154.541C175.027 154.055 174.89 153.567 174.589 153.178Z" fill="#FFF6E7"/>
<path d="M302.218 112.296C302.607 111.995 303.101 111.858 303.593 111.914C304.085 111.97 304.534 112.215 304.843 112.596C306.345 114.603 307.429 116.884 308.03 119.306C308.967 123.018 309.202 128.783 304.96 135.054C298.327 144.831 304.585 152.855 304.866 153.178C305.168 153.567 305.304 154.055 305.248 154.541C305.191 155.027 304.945 155.472 304.561 155.783C304.172 156.085 303.678 156.222 303.186 156.166C302.694 156.11 302.245 155.864 301.937 155.484C300.434 153.476 299.351 151.196 298.749 148.774C298.373 147.288 298.184 145.763 298.187 144.231C298.187 141.003 299.054 137.13 301.819 133.025C308.452 123.249 302.194 115.225 301.913 114.902C301.612 114.513 301.475 114.025 301.532 113.539C301.588 113.053 301.834 112.608 302.218 112.296ZM293.756 153.178C293.475 152.855 287.217 144.831 293.85 135.054C298.091 128.783 297.857 123.018 296.92 119.306C296.318 116.884 295.235 114.603 293.732 112.596C293.424 112.215 292.974 111.97 292.483 111.914C291.991 111.858 291.497 111.995 291.108 112.296C290.724 112.608 290.478 113.053 290.421 113.539C290.365 114.025 290.501 114.513 290.803 114.902C291.084 115.225 297.341 123.249 290.709 133.025C287.944 137.13 287.077 141.003 287.077 144.231C287.074 145.763 287.263 147.288 287.639 148.774C288.24 151.196 289.324 153.476 290.826 155.484C291.135 155.864 291.584 156.11 292.076 156.166C292.568 156.222 293.062 156.085 293.451 155.783C293.835 155.472 294.08 155.027 294.137 154.541C294.194 154.055 294.057 153.567 293.756 153.178ZM282.646 153.178C282.364 152.855 276.107 144.831 282.739 135.054C286.981 128.783 286.747 123.018 285.809 119.306C285.208 116.884 284.125 114.603 282.622 112.596C282.313 112.215 281.864 111.97 281.373 111.914C280.881 111.858 280.386 111.995 279.997 112.296C279.614 112.608 279.368 113.053 279.311 113.539C279.254 114.025 279.391 114.513 279.693 114.902C279.974 115.225 286.231 123.249 279.599 133.025C276.833 137.13 275.966 141.003 275.966 144.231C275.969 148.279 277.283 152.22 279.716 155.484C280.025 155.864 280.474 156.11 280.966 156.166C281.457 156.222 281.952 156.085 282.341 155.783C282.724 155.472 282.97 155.027 283.027 154.541C283.084 154.055 282.947 153.567 282.646 153.178Z" fill="#FFF6E7"/>
<path d="M0.394712 125.007C0.0936176 124.618 -0.0438478 124.123 0.0123082 123.632C0.0684642 123.14 0.313683 122.691 0.694464 122.382C2.70185 120.879 4.98242 119.796 7.4043 119.195C11.1166 118.257 16.8811 118.023 23.1528 122.265C32.9293 128.897 40.9535 122.64 41.2763 122.358C41.665 122.057 42.1536 121.92 42.6395 121.977C43.1253 122.034 43.5706 122.28 43.8818 122.663C44.1829 123.052 44.3204 123.547 44.2642 124.038C44.2081 124.53 43.9628 124.979 43.5821 125.288C41.5747 126.791 39.2941 127.874 36.8722 128.475C35.3865 128.851 33.8609 129.04 32.3298 129.038C29.1017 129.038 25.228 128.171 21.1237 125.405C11.3472 118.773 3.32306 125.03 3.00025 125.311C2.61149 125.613 2.1229 125.75 1.63706 125.693C1.15122 125.636 0.705939 125.39 0.394712 125.007ZM41.2763 133.469C40.9535 133.75 32.9293 140.007 23.1528 133.375C16.8811 129.133 11.1166 129.367 7.4043 130.305C4.98242 130.906 2.70185 131.989 0.694464 133.492C0.313683 133.801 0.0684642 134.25 0.0123082 134.742C-0.0438478 135.233 0.0936176 135.728 0.394712 136.117C0.705939 136.5 1.15122 136.746 1.63706 136.803C2.1229 136.86 2.61149 136.723 3.00025 136.422C3.32306 136.14 11.3472 129.883 21.1237 136.515C25.228 139.281 29.1017 140.148 32.3298 140.148C33.8609 140.15 35.3865 139.961 36.8722 139.585C39.2941 138.984 41.5747 137.901 43.5821 136.398C43.9628 136.089 44.2081 135.64 44.2642 135.149C44.3204 134.657 44.1829 134.162 43.8818 133.773C43.5706 133.39 43.1253 133.144 42.6395 133.087C42.1536 133.03 41.665 133.167 41.2763 133.469ZM41.2763 144.579C40.9535 144.86 32.9293 151.118 23.1528 144.485C16.8811 140.243 11.1166 140.478 7.4043 141.415C4.98242 142.016 2.70185 143.1 0.694464 144.602C0.313683 144.911 0.0684642 145.36 0.0123082 145.852C-0.0438478 146.344 0.0936176 146.838 0.394712 147.227C0.705939 147.611 1.15122 147.857 1.63706 147.913C2.1229 147.97 2.61149 147.833 3.00025 147.532C3.32306 147.251 11.3472 140.993 21.1237 147.626C25.228 150.391 29.1017 151.258 32.3298 151.258C36.3773 151.255 40.3186 149.942 43.5821 147.508C43.9628 147.2 44.2081 146.751 44.2642 146.259C44.3204 145.767 44.1829 145.273 43.8818 144.884C43.5706 144.5 43.1253 144.254 42.6395 144.197C42.1536 144.141 41.665 144.277 41.2763 144.579Z" fill="#FFF6E7"/>
<path d="M324.565 125.007C324.264 124.618 324.126 124.123 324.182 123.632C324.239 123.14 324.484 122.691 324.865 122.382C326.872 120.879 329.153 119.796 331.574 119.195C335.287 118.257 341.051 118.023 347.323 122.265C357.099 128.897 365.124 122.64 365.446 122.358C365.835 122.057 366.324 121.92 366.81 121.977C367.295 122.034 367.741 122.28 368.052 122.663C368.353 123.052 368.491 123.547 368.434 124.038C368.378 124.53 368.133 124.979 367.752 125.288C365.745 126.791 363.464 127.874 361.042 128.475C359.557 128.851 358.031 129.04 356.5 129.038C353.272 129.038 349.398 128.171 345.294 125.405C335.517 118.773 327.493 125.03 327.17 125.311C326.782 125.613 326.293 125.75 325.807 125.693C325.321 125.636 324.876 125.39 324.565 125.007ZM365.446 133.469C365.124 133.75 357.099 140.007 347.323 133.375C341.051 129.133 335.287 129.367 331.574 130.305C329.153 130.906 326.872 131.989 324.865 133.492C324.484 133.801 324.239 134.25 324.182 134.742C324.126 135.233 324.264 135.728 324.565 136.117C324.876 136.5 325.321 136.746 325.807 136.803C326.293 136.86 326.782 136.723 327.17 136.422C327.493 136.14 335.517 129.883 345.294 136.515C349.398 139.281 353.272 140.148 356.5 140.148C358.031 140.15 359.557 139.961 361.042 139.585C363.464 138.984 365.745 137.901 367.752 136.398C368.133 136.089 368.378 135.64 368.434 135.149C368.491 134.657 368.353 134.162 368.052 133.773C367.741 133.39 367.295 133.144 366.81 133.087C366.324 133.03 365.835 133.167 365.446 133.469ZM365.446 144.579C365.124 144.86 357.099 151.118 347.323 144.485C341.051 140.243 335.287 140.478 331.574 141.415C329.153 142.016 326.872 143.1 324.865 144.602C324.484 144.911 324.239 145.36 324.182 145.852C324.126 146.344 324.264 146.838 324.565 147.227C324.876 147.611 325.321 147.857 325.807 147.913C326.293 147.97 326.782 147.833 327.17 147.532C327.493 147.251 335.517 140.993 345.294 147.626C349.398 150.391 353.272 151.258 356.5 151.258C360.547 151.255 364.489 149.942 367.752 147.508C368.133 147.2 368.378 146.751 368.434 146.259C368.491 145.767 368.353 145.273 368.052 144.884C367.741 144.5 367.295 144.254 366.81 144.197C366.324 144.141 365.835 144.277 365.446 144.579Z" fill="#FFF6E7"/>
<path d="M108.451 125.007C108.15 124.618 108.013 124.123 108.069 123.632C108.125 123.14 108.37 122.691 108.751 122.382C110.758 120.879 113.039 119.796 115.461 119.195C119.173 118.257 124.938 118.023 131.209 122.265C140.986 128.897 149.01 122.64 149.333 122.358C149.722 122.057 150.21 121.92 150.696 121.977C151.182 122.034 151.627 122.28 151.938 122.663C152.239 123.052 152.377 123.547 152.321 124.038C152.265 124.53 152.019 124.979 151.639 125.288C149.631 126.791 147.351 127.874 144.929 128.475C143.443 128.851 141.917 129.04 140.386 129.038C137.158 129.038 133.285 128.171 129.18 125.405C119.404 118.773 111.38 125.03 111.057 125.311C110.668 125.613 110.179 125.75 109.694 125.693C109.208 125.636 108.762 125.39 108.451 125.007ZM149.333 133.469C149.01 133.75 140.986 140.007 131.209 133.375C124.938 129.133 119.173 129.367 115.461 130.305C113.039 130.906 110.758 131.989 108.751 133.492C108.37 133.801 108.125 134.25 108.069 134.742C108.013 135.233 108.15 135.728 108.451 136.117C108.762 136.5 109.208 136.746 109.694 136.803C110.179 136.86 110.668 136.723 111.057 136.422C111.38 136.14 119.404 129.883 129.18 136.515C133.285 139.281 137.158 140.148 140.386 140.148C141.917 140.15 143.443 139.961 144.929 139.585C147.351 138.984 149.631 137.901 151.639 136.398C152.019 136.089 152.265 135.64 152.321 135.149C152.377 134.657 152.239 134.162 151.938 133.773C151.627 133.39 151.182 133.144 150.696 133.087C150.21 133.03 149.722 133.167 149.333 133.469ZM149.333 144.579C149.01 144.86 140.986 151.118 131.209 144.485C124.938 140.243 119.173 140.478 115.461 141.415C113.039 142.016 110.758 143.1 108.751 144.602C108.37 144.911 108.125 145.36 108.069 145.852C108.013 146.344 108.15 146.838 108.451 147.227C108.762 147.611 109.208 147.857 109.694 147.913C110.179 147.97 110.668 147.833 111.057 147.532C111.38 147.251 119.404 140.993 129.18 147.626C133.285 150.391 137.158 151.258 140.386 151.258C144.434 151.255 148.375 149.942 151.639 147.508C152.019 147.2 152.265 146.751 152.321 146.259C152.377 145.767 152.239 145.273 151.938 144.884C151.627 144.5 151.182 144.254 150.696 144.197C150.21 144.141 149.722 144.277 149.333 144.579Z" fill="#FFF6E7"/>
<path d="M26.2515 1.29632C26.6406 0.995229 27.1349 0.857763 27.6267 0.913919C28.1184 0.970075 28.5676 1.21529 28.8763 1.59608C30.379 3.60346 31.4623 5.88403 32.0636 8.30591C33.001 12.0182 33.2353 17.7827 28.9935 24.0544C22.3611 33.8309 28.6185 41.8551 28.8997 42.1779C29.2013 42.5666 29.338 43.0552 29.2812 43.5411C29.2244 44.0269 28.9785 44.4722 28.595 44.7834C28.2059 45.0845 27.7116 45.222 27.2198 45.1658C26.7281 45.1097 26.2789 44.8645 25.9702 44.4837C24.4675 42.4763 23.3842 40.1957 22.783 37.7738C22.4069 36.2881 22.218 34.7625 22.2205 33.2314C22.2205 30.0033 23.0876 26.1296 25.8531 22.0253C32.4854 12.2488 26.228 4.22467 25.9468 3.90186C25.6452 3.5131 25.5085 3.02451 25.5653 2.53867C25.6221 2.05283 25.8681 1.60755 26.2515 1.29632ZM17.7895 42.1779C17.5083 41.8551 11.2509 33.8309 17.8832 24.0544C22.1251 17.7827 21.8908 12.0182 20.9533 8.30591C20.3521 5.88403 19.2688 3.60346 17.7661 1.59607C17.4574 1.21529 17.0082 0.970075 16.5164 0.913919C16.0247 0.857763 15.5304 0.995228 15.1412 1.29632C14.7578 1.60755 14.5119 2.05283 14.4551 2.53867C14.3983 3.02451 14.535 3.5131 14.8366 3.90186C15.1178 4.22467 21.3752 12.2488 14.7428 22.0253C11.9774 26.1296 11.1103 30.0033 11.1103 33.2314C11.1078 34.7625 11.2967 36.2881 11.6727 37.7738C12.274 40.1957 13.3573 42.4763 14.86 44.4837C15.1687 44.8645 15.6179 45.1097 16.1096 45.1658C16.6014 45.222 17.0957 45.0845 17.4848 44.7834C17.8682 44.4722 18.1142 44.0269 18.171 43.5411C18.2278 43.0552 18.0911 42.5666 17.7895 42.1779ZM6.67927 42.1779C6.39804 41.8551 0.140669 33.8309 6.77301 24.0544C11.0149 17.7827 10.7805 12.0182 9.84311 8.30591C9.24185 5.88403 8.15853 3.60346 6.65583 1.59607C6.34716 1.21529 5.89796 0.970074 5.40622 0.913918C4.91449 0.857762 4.42013 0.995228 4.03102 1.29632C3.64761 1.60755 3.40168 2.05283 3.34487 2.53867C3.28806 3.02451 3.42479 3.5131 3.72635 3.90186C4.00758 4.22467 10.265 12.2488 3.63261 22.0253C0.867181 26.1296 5.59484e-05 30.0033 5.58073e-05 33.2314C0.00299295 37.2789 1.31641 41.2202 3.74979 44.4837C4.05846 44.8645 4.50766 45.1097 4.9994 45.1658C5.49113 45.222 5.98549 45.0845 6.3746 44.7834C6.75801 44.4722 7.00394 44.0269 7.06075 43.5411C7.11756 43.0552 6.98083 42.5666 6.67927 42.1779Z" fill="#FFF6E7"/>
<path d="M134.308 1.29632C134.697 0.995229 135.191 0.857763 135.683 0.913919C136.175 0.970075 136.624 1.21529 136.933 1.59608C138.435 3.60346 139.519 5.88403 140.12 8.30591C141.058 12.0182 141.292 17.7827 137.05 24.0544C130.418 33.8309 136.675 41.8551 136.956 42.1779C137.258 42.5666 137.395 43.0552 137.338 43.5411C137.281 44.0269 137.035 44.4722 136.652 44.7834C136.262 45.0845 135.768 45.222 135.276 45.1658C134.785 45.1097 134.335 44.8645 134.027 44.4837C132.524 42.4763 131.441 40.1957 130.839 37.7738C130.463 36.2881 130.275 34.7625 130.277 33.2314C130.277 30.0033 131.144 26.1296 133.91 22.0253C140.542 12.2488 134.285 4.22467 134.003 3.90186C133.702 3.5131 133.565 3.02451 133.622 2.53867C133.679 2.05283 133.925 1.60755 134.308 1.29632ZM125.846 42.1779C125.565 41.8551 119.307 33.8309 125.94 24.0544C130.182 17.7827 129.947 12.0182 129.01 8.30591C128.409 5.88403 127.325 3.60346 125.823 1.59607C125.514 1.21529 125.065 0.970075 124.573 0.913919C124.081 0.857763 123.587 0.995228 123.198 1.29632C122.814 1.60755 122.568 2.05283 122.512 2.53867C122.455 3.02451 122.592 3.5131 122.893 3.90186C123.174 4.22467 129.432 12.2488 122.799 22.0253C120.034 26.1296 119.167 30.0033 119.167 33.2314C119.164 34.7625 119.353 36.2881 119.729 37.7738C120.331 40.1957 121.414 42.4763 122.917 44.4837C123.225 44.8645 123.674 45.1097 124.166 45.1658C124.658 45.222 125.152 45.0845 125.541 44.7834C125.925 44.4722 126.171 44.0269 126.227 43.5411C126.284 43.0552 126.148 42.5666 125.846 42.1779ZM114.736 42.1779C114.455 41.8551 108.197 33.8309 114.83 24.0544C119.071 17.7827 118.837 12.0182 117.9 8.30591C117.298 5.88403 116.215 3.60346 114.712 1.59607C114.404 1.21529 113.954 0.970074 113.463 0.913918C112.971 0.857762 112.477 0.995228 112.088 1.29632C111.704 1.60755 111.458 2.05283 111.401 2.53867C111.345 3.02451 111.481 3.5131 111.783 3.90186C112.064 4.22467 118.321 12.2488 111.689 22.0253C108.924 26.1296 108.057 30.0033 108.057 33.2314C108.06 37.2789 109.373 41.2202 111.806 44.4837C112.115 44.8645 112.564 45.1097 113.056 45.1658C113.548 45.222 114.042 45.0845 114.431 44.7834C114.815 44.4722 115.06 44.0269 115.117 43.5411C115.174 43.0552 115.037 42.5666 114.736 42.1779Z" fill="#FFF6E7"/>
<path d="M242.365 1.29632C242.754 0.995229 243.248 0.857763 243.74 0.913919C244.232 0.970075 244.681 1.21529 244.99 1.59608C246.492 3.60346 247.576 5.88403 248.177 8.30591C249.114 12.0182 249.349 17.7827 245.107 24.0544C238.475 33.8309 244.732 41.8551 245.013 42.1779C245.315 42.5666 245.451 43.0552 245.395 43.5411C245.338 44.0269 245.092 44.4722 244.708 44.7834C244.319 45.0845 243.825 45.222 243.333 45.1658C242.842 45.1097 242.392 44.8645 242.084 44.4837C240.581 42.4763 239.498 40.1957 238.896 37.7738C238.52 36.2881 238.331 34.7625 238.334 33.2314C238.334 30.0033 239.201 26.1296 241.966 22.0253C248.599 12.2488 242.341 4.22467 242.06 3.90186C241.759 3.5131 241.622 3.02451 241.679 2.53867C241.736 2.05283 241.981 1.60755 242.365 1.29632ZM233.903 42.1779C233.622 41.8551 227.364 33.8309 233.997 24.0544C238.239 17.7827 238.004 12.0182 237.067 8.30591C236.465 5.88403 235.382 3.60346 233.879 1.59607C233.571 1.21529 233.122 0.970075 232.63 0.913919C232.138 0.857763 231.644 0.995228 231.255 1.29632C230.871 1.60755 230.625 2.05283 230.568 2.53867C230.512 3.02451 230.648 3.5131 230.95 3.90186C231.231 4.22467 237.489 12.2488 230.856 22.0253C228.091 26.1296 227.224 30.0033 227.224 33.2314C227.221 34.7625 227.41 36.2881 227.786 37.7738C228.387 40.1957 229.471 42.4763 230.973 44.4837C231.282 44.8645 231.731 45.1097 232.223 45.1658C232.715 45.222 233.209 45.0845 233.598 44.7834C233.982 44.4722 234.228 44.0269 234.284 43.5411C234.341 43.0552 234.204 42.5666 233.903 42.1779ZM222.793 42.1779C222.511 41.8551 216.254 33.8309 222.886 24.0544C227.128 17.7827 226.894 12.0182 225.957 8.30591C225.355 5.88403 224.272 3.60346 222.769 1.59607C222.461 1.21529 222.011 0.970074 221.52 0.913918C221.028 0.857762 220.534 0.995228 220.144 1.29632C219.761 1.60755 219.515 2.05283 219.458 2.53867C219.401 3.02451 219.538 3.5131 219.84 3.90186C220.121 4.22467 226.378 12.2488 219.746 22.0253C216.981 26.1296 216.113 30.0033 216.113 33.2314C216.116 37.2789 217.43 41.2202 219.863 44.4837C220.172 44.8645 220.621 45.1097 221.113 45.1658C221.605 45.222 222.099 45.0845 222.488 44.7834C222.871 44.4722 223.117 44.0269 223.174 43.5411C223.231 43.0552 223.094 42.5666 222.793 42.1779Z" fill="#FFF6E7"/>
<path d="M350.422 1.29632C350.811 0.995229 351.305 0.857763 351.797 0.913919C352.289 0.970075 352.738 1.21529 353.047 1.59608C354.549 3.60346 355.633 5.88403 356.234 8.30591C357.171 12.0182 357.406 17.7827 353.164 24.0544C346.531 33.8309 352.789 41.8551 353.07 42.1779C353.372 42.5666 353.508 43.0552 353.451 43.5411C353.395 44.0269 353.149 44.4722 352.765 44.7834C352.376 45.0845 351.882 45.222 351.39 45.1658C350.898 45.1097 350.449 44.8645 350.141 44.4837C348.638 42.4763 347.555 40.1957 346.953 37.7738C346.577 36.2881 346.388 34.7625 346.391 33.2314C346.391 30.0033 347.258 26.1296 350.023 22.0253C356.656 12.2488 350.398 4.22467 350.117 3.90186C349.816 3.5131 349.679 3.02451 349.736 2.53867C349.792 2.05283 350.038 1.60755 350.422 1.29632ZM341.96 42.1779C341.679 41.8551 335.421 33.8309 342.054 24.0544C346.295 17.7827 346.061 12.0182 345.124 8.30591C344.522 5.88403 343.439 3.60346 341.936 1.59607C341.628 1.21529 341.178 0.970075 340.687 0.913919C340.195 0.857763 339.701 0.995228 339.312 1.29632C338.928 1.60755 338.682 2.05283 338.625 2.53867C338.569 3.02451 338.705 3.5131 339.007 3.90186C339.288 4.22467 345.545 12.2488 338.913 22.0253C336.148 26.1296 335.281 30.0033 335.281 33.2314C335.278 34.7625 335.467 36.2881 335.843 37.7738C336.444 40.1957 337.528 42.4763 339.03 44.4837C339.339 44.8645 339.788 45.1097 340.28 45.1658C340.772 45.222 341.266 45.0845 341.655 44.7834C342.039 44.4722 342.284 44.0269 342.341 43.5411C342.398 43.0552 342.261 42.5666 341.96 42.1779ZM330.85 42.1779C330.568 41.8551 324.311 33.8309 330.943 24.0544C335.185 17.7827 334.951 12.0182 334.013 8.30591C333.412 5.88403 332.329 3.60346 330.826 1.59607C330.517 1.21529 330.068 0.970074 329.577 0.913918C329.085 0.857762 328.59 0.995228 328.201 1.29632C327.818 1.60755 327.572 2.05283 327.515 2.53867C327.458 3.02451 327.595 3.5131 327.897 3.90186C328.178 4.22467 334.435 12.2488 327.803 22.0253C325.037 26.1296 324.17 30.0033 324.17 33.2314C324.173 37.2789 325.487 41.2202 327.92 44.4837C328.229 44.8645 328.678 45.1097 329.17 45.1658C329.661 45.222 330.156 45.0845 330.545 44.7834C330.928 44.4722 331.174 44.0269 331.231 43.5411C331.288 43.0552 331.151 42.5666 330.85 42.1779Z" fill="#FFF6E7"/>
<path d="M48.5987 14.0067C48.2976 13.6176 48.1601 13.1233 48.2163 12.6315C48.2724 12.1398 48.5177 11.6906 48.8984 11.3819C50.9058 9.8792 53.1864 8.79589 55.6083 8.19463C59.3206 7.25719 65.0851 7.02284 71.3568 11.2647C81.1333 17.8971 89.1574 11.6397 89.4803 11.3585C89.869 11.0569 90.3576 10.9202 90.8434 10.977C91.3293 11.0338 91.7746 11.2797 92.0858 11.6631C92.3869 12.0522 92.5244 12.5466 92.4682 13.0383C92.412 13.5301 92.1668 13.9793 91.786 14.2879C89.7787 15.7907 87.4981 16.874 85.0762 17.4752C83.5905 17.8512 82.0649 18.0401 80.5338 18.0377C77.3057 18.0377 73.432 17.1706 69.3277 14.4051C59.5512 7.77278 51.527 14.0302 51.2042 14.3114C50.8155 14.6129 50.3269 14.7497 49.841 14.6929C49.3552 14.6361 48.9099 14.3901 48.5987 14.0067ZM89.4803 22.4687C89.1574 22.7499 81.1333 29.0073 71.3568 22.3749C65.0851 18.1331 59.3206 18.3674 55.6083 19.3048C53.1864 19.9061 50.9058 20.9894 48.8984 22.4921C48.5177 22.8008 48.2724 23.25 48.2163 23.7417C48.1601 24.2335 48.2976 24.7278 48.5987 25.1169C48.9099 25.5003 49.3552 25.7463 49.841 25.8031C50.3269 25.8599 50.8155 25.7232 51.2042 25.4216C51.527 25.1404 59.5512 18.883 69.3277 25.5153C73.432 28.2808 77.3057 29.1479 80.5338 29.1479C82.0649 29.1504 83.5905 28.9615 85.0762 28.5854C87.4981 27.9842 89.7787 26.9009 91.786 25.3982C92.1668 25.0895 92.412 24.6403 92.4682 24.1486C92.5244 23.6568 92.3869 23.1625 92.0858 22.7734C91.7746 22.3899 91.3293 22.144 90.8434 22.0872C90.3576 22.0304 89.869 22.1671 89.4803 22.4687ZM89.4803 33.5789C89.1574 33.8601 81.1333 40.1175 71.3568 33.4852C65.0851 29.2433 59.3206 29.4776 55.6083 30.4151C53.1864 31.0163 50.9058 32.0996 48.8984 33.6023C48.5177 33.911 48.2724 34.3602 48.2163 34.852C48.1601 35.3437 48.2976 35.838 48.5987 36.2272C48.9099 36.6106 49.3552 36.8565 49.841 36.9133C50.3269 36.9701 50.8155 36.8334 51.2042 36.5318C51.527 36.2506 59.5512 29.9932 69.3277 36.6256C73.432 39.391 77.3057 40.2581 80.5338 40.2581C84.5813 40.2552 88.5226 38.9418 91.786 36.5084C92.1668 36.1997 92.412 35.7505 92.4682 35.2588C92.5244 34.767 92.3869 34.2727 92.0858 33.8836C91.7746 33.5002 91.3293 33.2542 90.8434 33.1974C90.3576 33.1406 89.869 33.2773 89.4803 33.5789Z" fill="#FFF6E7"/>
<path d="M156.655 14.0067C156.354 13.6176 156.217 13.1233 156.273 12.6315C156.329 12.1398 156.574 11.6906 156.955 11.3819C158.962 9.8792 161.243 8.79589 163.665 8.19463C167.377 7.25719 173.142 7.02284 179.413 11.2647C189.19 17.8971 197.214 11.6397 197.537 11.3585C197.926 11.0569 198.414 10.9202 198.9 10.977C199.386 11.0338 199.831 11.2797 200.142 11.6631C200.443 12.0522 200.581 12.5466 200.525 13.0383C200.469 13.5301 200.223 13.9793 199.843 14.2879C197.835 15.7907 195.555 16.874 193.133 17.4752C191.647 17.8512 190.121 18.0401 188.59 18.0377C185.362 18.0377 181.489 17.1706 177.384 14.4051C167.608 7.77278 159.584 14.0302 159.261 14.3114C158.872 14.6129 158.383 14.7497 157.898 14.6929C157.412 14.6361 156.966 14.3901 156.655 14.0067ZM197.537 22.4687C197.214 22.7499 189.19 29.0073 179.413 22.3749C173.142 18.1331 167.377 18.3674 163.665 19.3048C161.243 19.9061 158.962 20.9894 156.955 22.4921C156.574 22.8008 156.329 23.25 156.273 23.7417C156.217 24.2335 156.354 24.7278 156.655 25.1169C156.966 25.5003 157.412 25.7463 157.898 25.8031C158.383 25.8599 158.872 25.7232 159.261 25.4216C159.584 25.1404 167.608 18.883 177.384 25.5153C181.489 28.2808 185.362 29.1479 188.59 29.1479C190.121 29.1504 191.647 28.9615 193.133 28.5854C195.555 27.9842 197.835 26.9009 199.843 25.3982C200.223 25.0895 200.469 24.6403 200.525 24.1486C200.581 23.6568 200.443 23.1625 200.142 22.7734C199.831 22.3899 199.386 22.144 198.9 22.0872C198.414 22.0304 197.926 22.1671 197.537 22.4687ZM197.537 33.5789C197.214 33.8601 189.19 40.1175 179.413 33.4852C173.142 29.2433 167.377 29.4776 163.665 30.4151C161.243 31.0163 158.962 32.0996 156.955 33.6023C156.574 33.911 156.329 34.3602 156.273 34.852C156.217 35.3437 156.354 35.838 156.655 36.2272C156.966 36.6106 157.412 36.8565 157.898 36.9133C158.383 36.9701 158.872 36.8334 159.261 36.5318C159.584 36.2506 167.608 29.9932 177.384 36.6256C181.489 39.391 185.362 40.2581 188.59 40.2581C192.638 40.2552 196.579 38.9418 199.843 36.5084C200.223 36.1997 200.469 35.7505 200.525 35.2588C200.581 34.767 200.443 34.2727 200.142 33.8836C199.831 33.5002 199.386 33.2542 198.9 33.1974C198.414 33.1406 197.926 33.2773 197.537 33.5789Z" fill="#FFF6E7"/>
<path d="M264.712 14.0067C264.411 13.6176 264.274 13.1233 264.33 12.6315C264.386 12.1398 264.631 11.6906 265.012 11.3819C267.019 9.8792 269.3 8.79589 271.722 8.19463C275.434 7.25719 281.198 7.02284 287.47 11.2647C297.247 17.8971 305.271 11.6397 305.594 11.3585C305.982 11.0569 306.471 10.9202 306.957 10.977C307.443 11.0338 307.888 11.2797 308.199 11.6631C308.5 12.0522 308.638 12.5466 308.582 13.0383C308.525 13.5301 308.28 13.9793 307.899 14.2879C305.892 15.7907 303.611 16.874 301.19 17.4752C299.704 17.8512 298.178 18.0401 296.647 18.0377C293.419 18.0377 289.545 17.1706 285.441 14.4051C275.665 7.77278 267.64 14.0302 267.318 14.3114C266.929 14.6129 266.44 14.7497 265.954 14.6929C265.469 14.6361 265.023 14.3901 264.712 14.0067ZM305.594 22.4687C305.271 22.7499 297.247 29.0073 287.47 22.3749C281.198 18.1331 275.434 18.3674 271.722 19.3048C269.3 19.9061 267.019 20.9894 265.012 22.4921C264.631 22.8008 264.386 23.25 264.33 23.7417C264.274 24.2335 264.411 24.7278 264.712 25.1169C265.023 25.5003 265.469 25.7463 265.954 25.8031C266.44 25.8599 266.929 25.7232 267.318 25.4216C267.64 25.1404 275.665 18.883 285.441 25.5153C289.545 28.2808 293.419 29.1479 296.647 29.1479C298.178 29.1504 299.704 28.9615 301.19 28.5854C303.611 27.9842 305.892 26.9009 307.899 25.3982C308.28 25.0895 308.525 24.6403 308.582 24.1486C308.638 23.6568 308.5 23.1625 308.199 22.7734C307.888 22.3899 307.443 22.144 306.957 22.0872C306.471 22.0304 305.982 22.1671 305.594 22.4687ZM305.594 33.5789C305.271 33.8601 297.247 40.1175 287.47 33.4852C281.198 29.2433 275.434 29.4776 271.722 30.4151C269.3 31.0163 267.019 32.0996 265.012 33.6023C264.631 33.911 264.386 34.3602 264.33 34.852C264.274 35.3437 264.411 35.838 264.712 36.2272C265.023 36.6106 265.469 36.8565 265.954 36.9133C266.44 36.9701 266.929 36.8334 267.318 36.5318C267.64 36.2506 275.665 29.9932 285.441 36.6256C289.545 39.391 293.419 40.2581 296.647 40.2581C300.695 40.2552 304.636 38.9418 307.899 36.5084C308.28 36.1997 308.525 35.7505 308.582 35.2588C308.638 34.767 308.5 34.2727 308.199 33.8836C307.888 33.5002 307.443 33.2542 306.957 33.1974C306.471 33.1406 305.982 33.2773 305.594 33.5789Z" fill="#FFF6E7"/>
<path d="M216.508 125.007C216.207 124.618 216.07 124.123 216.126 123.632C216.182 123.14 216.427 122.691 216.808 122.382C218.815 120.879 221.096 119.796 223.518 119.195C227.23 118.257 232.994 118.023 239.266 122.265C249.043 128.897 257.067 122.64 257.39 122.358C257.778 122.057 258.267 121.92 258.753 121.977C259.239 122.034 259.684 122.28 259.995 122.663C260.296 123.052 260.434 123.547 260.378 124.038C260.321 124.53 260.076 124.979 259.695 125.288C257.688 126.791 255.408 127.874 252.986 128.475C251.5 128.851 249.974 129.04 248.443 129.038C245.215 129.038 241.341 128.171 237.237 125.405C227.461 118.773 219.436 125.03 219.114 125.311C218.725 125.613 218.236 125.75 217.75 125.693C217.265 125.636 216.819 125.39 216.508 125.007ZM257.39 133.469C257.067 133.75 249.043 140.007 239.266 133.375C232.994 129.133 227.23 129.367 223.518 130.305C221.096 130.906 218.815 131.989 216.808 133.492C216.427 133.801 216.182 134.25 216.126 134.742C216.07 135.233 216.207 135.728 216.508 136.117C216.819 136.5 217.265 136.746 217.75 136.803C218.236 136.86 218.725 136.723 219.114 136.422C219.436 136.14 227.461 129.883 237.237 136.515C241.341 139.281 245.215 140.148 248.443 140.148C249.974 140.15 251.5 139.961 252.986 139.585C255.408 138.984 257.688 137.901 259.695 136.398C260.076 136.089 260.321 135.64 260.378 135.149C260.434 134.657 260.296 134.162 259.995 133.773C259.684 133.39 259.239 133.144 258.753 133.087C258.267 133.03 257.778 133.167 257.39 133.469ZM257.39 144.579C257.067 144.86 249.043 151.118 239.266 144.485C232.994 140.243 227.23 140.478 223.518 141.415C221.096 142.016 218.815 143.1 216.808 144.602C216.427 144.911 216.182 145.36 216.126 145.852C216.07 146.344 216.207 146.838 216.508 147.227C216.819 147.611 217.265 147.857 217.75 147.913C218.236 147.97 218.725 147.833 219.114 147.532C219.436 147.251 227.461 140.993 237.237 147.626C241.341 150.391 245.215 151.258 248.443 151.258C252.491 151.255 256.432 149.942 259.695 147.508C260.076 147.2 260.321 146.751 260.378 146.259C260.434 145.767 260.296 145.273 259.995 144.884C259.684 144.5 259.239 144.254 258.753 144.197C258.267 144.141 257.778 144.277 257.39 144.579Z" fill="#FFF6E7"/>
<path d="M26.2515 220.296C26.6406 219.995 27.1349 219.858 27.6267 219.914C28.1184 219.97 28.5676 220.215 28.8763 220.596C30.379 222.603 31.4623 224.884 32.0636 227.306C33.001 231.018 33.2353 236.783 28.9935 243.054C22.3611 252.831 28.6185 260.855 28.8997 261.178C29.2013 261.567 29.338 262.055 29.2812 262.541C29.2244 263.027 28.9785 263.472 28.595 263.783C28.2059 264.085 27.7116 264.222 27.2198 264.166C26.7281 264.11 26.2789 263.864 25.9702 263.484C24.4675 261.476 23.3842 259.196 22.783 256.774C22.4069 255.288 22.218 253.763 22.2205 252.231C22.2205 249.003 23.0876 245.13 25.8531 241.025C32.4854 231.249 26.228 223.225 25.9468 222.902C25.6452 222.513 25.5085 222.025 25.5653 221.539C25.6221 221.053 25.8681 220.608 26.2515 220.296ZM17.7895 261.178C17.5083 260.855 11.2509 252.831 17.8832 243.054C22.1251 236.783 21.8908 231.018 20.9533 227.306C20.3521 224.884 19.2688 222.603 17.7661 220.596C17.4574 220.215 17.0082 219.97 16.5164 219.914C16.0247 219.858 15.5304 219.995 15.1412 220.296C14.7578 220.608 14.5119 221.053 14.4551 221.539C14.3983 222.025 14.535 222.513 14.8366 222.902C15.1178 223.225 21.3752 231.249 14.7428 241.025C11.9774 245.13 11.1103 249.003 11.1103 252.231C11.1078 253.763 11.2967 255.288 11.6727 256.774C12.274 259.196 13.3573 261.476 14.86 263.484C15.1687 263.864 15.6179 264.11 16.1096 264.166C16.6014 264.222 17.0957 264.085 17.4848 263.783C17.8682 263.472 18.1142 263.027 18.171 262.541C18.2278 262.055 18.0911 261.567 17.7895 261.178ZM6.67927 261.178C6.39804 260.855 0.140669 252.831 6.77301 243.054C11.0149 236.783 10.7805 231.018 9.84311 227.306C9.24185 224.884 8.15853 222.603 6.65583 220.596C6.34716 220.215 5.89796 219.97 5.40622 219.914C4.91449 219.858 4.42013 219.995 4.03102 220.296C3.64761 220.608 3.40168 221.053 3.34487 221.539C3.28806 222.025 3.42479 222.513 3.72635 222.902C4.00758 223.225 10.265 231.249 3.63261 241.025C0.867181 245.13 5.59484e-05 249.003 5.58073e-05 252.231C0.00299295 256.279 1.31641 260.22 3.74979 263.484C4.05846 263.864 4.50766 264.11 4.9994 264.166C5.49113 264.222 5.98549 264.085 6.3746 263.783C6.75801 263.472 7.00394 263.027 7.06075 262.541C7.11756 262.055 6.98083 261.567 6.67927 261.178Z" fill="#FFF6E7"/>
<path d="M134.308 220.296C134.697 219.995 135.191 219.858 135.683 219.914C136.175 219.97 136.624 220.215 136.933 220.596C138.435 222.603 139.519 224.884 140.12 227.306C141.058 231.018 141.292 236.783 137.05 243.054C130.418 252.831 136.675 260.855 136.956 261.178C137.258 261.567 137.395 262.055 137.338 262.541C137.281 263.027 137.035 263.472 136.652 263.783C136.262 264.085 135.768 264.222 135.276 264.166C134.785 264.11 134.335 263.864 134.027 263.484C132.524 261.476 131.441 259.196 130.839 256.774C130.463 255.288 130.275 253.763 130.277 252.231C130.277 249.003 131.144 245.13 133.91 241.025C140.542 231.249 134.285 223.225 134.003 222.902C133.702 222.513 133.565 222.025 133.622 221.539C133.679 221.053 133.925 220.608 134.308 220.296ZM125.846 261.178C125.565 260.855 119.307 252.831 125.94 243.054C130.182 236.783 129.947 231.018 129.01 227.306C128.409 224.884 127.325 222.603 125.823 220.596C125.514 220.215 125.065 219.97 124.573 219.914C124.081 219.858 123.587 219.995 123.198 220.296C122.814 220.608 122.568 221.053 122.512 221.539C122.455 222.025 122.592 222.513 122.893 222.902C123.174 223.225 129.432 231.249 122.799 241.025C120.034 245.13 119.167 249.003 119.167 252.231C119.164 253.763 119.353 255.288 119.729 256.774C120.331 259.196 121.414 261.476 122.917 263.484C123.225 263.864 123.674 264.11 124.166 264.166C124.658 264.222 125.152 264.085 125.541 263.783C125.925 263.472 126.171 263.027 126.227 262.541C126.284 262.055 126.148 261.567 125.846 261.178ZM114.736 261.178C114.455 260.855 108.197 252.831 114.83 243.054C119.071 236.783 118.837 231.018 117.9 227.306C117.298 224.884 116.215 222.603 114.712 220.596C114.404 220.215 113.954 219.97 113.463 219.914C112.971 219.858 112.477 219.995 112.088 220.296C111.704 220.608 111.458 221.053 111.401 221.539C111.345 222.025 111.481 222.513 111.783 222.902C112.064 223.225 118.321 231.249 111.689 241.025C108.924 245.13 108.057 249.003 108.057 252.231C108.06 256.279 109.373 260.22 111.806 263.484C112.115 263.864 112.564 264.11 113.056 264.166C113.548 264.222 114.042 264.085 114.431 263.783C114.815 263.472 115.06 263.027 115.117 262.541C115.174 262.055 115.037 261.567 114.736 261.178Z" fill="#FFF6E7"/>
<path d="M242.365 220.296C242.754 219.995 243.248 219.858 243.74 219.914C244.232 219.97 244.681 220.215 244.99 220.596C246.492 222.603 247.576 224.884 248.177 227.306C249.114 231.018 249.349 236.783 245.107 243.054C238.475 252.831 244.732 260.855 245.013 261.178C245.315 261.567 245.451 262.055 245.395 262.541C245.338 263.027 245.092 263.472 244.708 263.783C244.319 264.085 243.825 264.222 243.333 264.166C242.842 264.11 242.392 263.864 242.084 263.484C240.581 261.476 239.498 259.196 238.896 256.774C238.52 255.288 238.331 253.763 238.334 252.231C238.334 249.003 239.201 245.13 241.966 241.025C248.599 231.249 242.341 223.225 242.06 222.902C241.759 222.513 241.622 222.025 241.679 221.539C241.736 221.053 241.981 220.608 242.365 220.296ZM233.903 261.178C233.622 260.855 227.364 252.831 233.997 243.054C238.239 236.783 238.004 231.018 237.067 227.306C236.465 224.884 235.382 222.603 233.879 220.596C233.571 220.215 233.122 219.97 232.63 219.914C232.138 219.858 231.644 219.995 231.255 220.296C230.871 220.608 230.625 221.053 230.568 221.539C230.512 222.025 230.648 222.513 230.95 222.902C231.231 223.225 237.489 231.249 230.856 241.025C228.091 245.13 227.224 249.003 227.224 252.231C227.221 253.763 227.41 255.288 227.786 256.774C228.387 259.196 229.471 261.476 230.973 263.484C231.282 263.864 231.731 264.11 232.223 264.166C232.715 264.222 233.209 264.085 233.598 263.783C233.982 263.472 234.228 263.027 234.284 262.541C234.341 262.055 234.204 261.567 233.903 261.178ZM222.793 261.178C222.511 260.855 216.254 252.831 222.886 243.054C227.128 236.783 226.894 231.018 225.957 227.306C225.355 224.884 224.272 222.603 222.769 220.596C222.461 220.215 222.011 219.97 221.52 219.914C221.028 219.858 220.534 219.995 220.144 220.296C219.761 220.608 219.515 221.053 219.458 221.539C219.401 222.025 219.538 222.513 219.84 222.902C220.121 223.225 226.378 231.249 219.746 241.025C216.981 245.13 216.113 249.003 216.113 252.231C216.116 256.279 217.43 260.22 219.863 263.484C220.172 263.864 220.621 264.11 221.113 264.166C221.605 264.222 222.099 264.085 222.488 263.783C222.871 263.472 223.117 263.027 223.174 262.541C223.231 262.055 223.094 261.567 222.793 261.178Z" fill="#FFF6E7"/>
<path d="M350.422 220.296C350.811 219.995 351.305 219.858 351.797 219.914C352.289 219.97 352.738 220.215 353.047 220.596C354.549 222.603 355.633 224.884 356.234 227.306C357.171 231.018 357.406 236.783 353.164 243.054C346.531 252.831 352.789 260.855 353.07 261.178C353.372 261.567 353.508 262.055 353.451 262.541C353.395 263.027 353.149 263.472 352.765 263.783C352.376 264.085 351.882 264.222 351.39 264.166C350.898 264.11 350.449 263.864 350.141 263.484C348.638 261.476 347.555 259.196 346.953 256.774C346.577 255.288 346.388 253.763 346.391 252.231C346.391 249.003 347.258 245.13 350.023 241.025C356.656 231.249 350.398 223.225 350.117 222.902C349.816 222.513 349.679 222.025 349.736 221.539C349.792 221.053 350.038 220.608 350.422 220.296ZM341.96 261.178C341.679 260.855 335.421 252.831 342.054 243.054C346.295 236.783 346.061 231.018 345.124 227.306C344.522 224.884 343.439 222.603 341.936 220.596C341.628 220.215 341.178 219.97 340.687 219.914C340.195 219.858 339.701 219.995 339.312 220.296C338.928 220.608 338.682 221.053 338.625 221.539C338.569 222.025 338.705 222.513 339.007 222.902C339.288 223.225 345.545 231.249 338.913 241.025C336.148 245.13 335.281 249.003 335.281 252.231C335.278 253.763 335.467 255.288 335.843 256.774C336.444 259.196 337.528 261.476 339.03 263.484C339.339 263.864 339.788 264.11 340.28 264.166C340.772 264.222 341.266 264.085 341.655 263.783C342.039 263.472 342.284 263.027 342.341 262.541C342.398 262.055 342.261 261.567 341.96 261.178ZM330.85 261.178C330.568 260.855 324.311 252.831 330.943 243.054C335.185 236.783 334.951 231.018 334.013 227.306C333.412 224.884 332.329 222.603 330.826 220.596C330.517 220.215 330.068 219.97 329.577 219.914C329.085 219.858 328.59 219.995 328.201 220.296C327.818 220.608 327.572 221.053 327.515 221.539C327.458 222.025 327.595 222.513 327.897 222.902C328.178 223.225 334.435 231.249 327.803 241.025C325.037 245.13 324.17 249.003 324.17 252.231C324.173 256.279 325.487 260.22 327.92 263.484C328.229 263.864 328.678 264.11 329.17 264.166C329.661 264.222 330.156 264.085 330.545 263.783C330.928 263.472 331.174 263.027 331.231 262.541C331.288 262.055 331.151 261.567 330.85 261.178Z" fill="#FFF6E7"/>
<path d="M48.5987 233.007C48.2976 232.618 48.1601 232.123 48.2163 231.632C48.2724 231.14 48.5177 230.691 48.8984 230.382C50.9058 228.879 53.1864 227.796 55.6083 227.195C59.3206 226.257 65.0851 226.023 71.3568 230.265C81.1333 236.897 89.1574 230.64 89.4803 230.358C89.869 230.057 90.3576 229.92 90.8434 229.977C91.3293 230.034 91.7746 230.28 92.0858 230.663C92.3869 231.052 92.5244 231.547 92.4682 232.038C92.412 232.53 92.1668 232.979 91.786 233.288C89.7787 234.791 87.4981 235.874 85.0762 236.475C83.5905 236.851 82.0649 237.04 80.5338 237.038C77.3057 237.038 73.432 236.171 69.3277 233.405C59.5512 226.773 51.527 233.03 51.2042 233.311C50.8155 233.613 50.3269 233.75 49.841 233.693C49.3552 233.636 48.9099 233.39 48.5987 233.007ZM89.4803 241.469C89.1574 241.75 81.1333 248.007 71.3568 241.375C65.0851 237.133 59.3206 237.367 55.6083 238.305C53.1864 238.906 50.9058 239.989 48.8984 241.492C48.5177 241.801 48.2724 242.25 48.2163 242.742C48.1601 243.233 48.2976 243.728 48.5987 244.117C48.9099 244.5 49.3552 244.746 49.841 244.803C50.3269 244.86 50.8155 244.723 51.2042 244.422C51.527 244.14 59.5512 237.883 69.3277 244.515C73.432 247.281 77.3057 248.148 80.5338 248.148C82.0649 248.15 83.5905 247.961 85.0762 247.585C87.4981 246.984 89.7787 245.901 91.786 244.398C92.1668 244.089 92.412 243.64 92.4682 243.149C92.5244 242.657 92.3869 242.162 92.0858 241.773C91.7746 241.39 91.3293 241.144 90.8434 241.087C90.3576 241.03 89.869 241.167 89.4803 241.469ZM89.4803 252.579C89.1574 252.86 81.1333 259.118 71.3568 252.485C65.0851 248.243 59.3206 248.478 55.6083 249.415C53.1864 250.016 50.9058 251.1 48.8984 252.602C48.5177 252.911 48.2724 253.36 48.2163 253.852C48.1601 254.344 48.2976 254.838 48.5987 255.227C48.9099 255.611 49.3552 255.857 49.841 255.913C50.3269 255.97 50.8155 255.833 51.2042 255.532C51.527 255.251 59.5512 248.993 69.3277 255.626C73.432 258.391 77.3057 259.258 80.5338 259.258C84.5813 259.255 88.5226 257.942 91.786 255.508C92.1668 255.2 92.412 254.751 92.4682 254.259C92.5244 253.767 92.3869 253.273 92.0858 252.884C91.7746 252.5 91.3293 252.254 90.8434 252.197C90.3576 252.141 89.869 252.277 89.4803 252.579Z" fill="#FFF6E7"/>
<path d="M156.655 233.007C156.354 232.618 156.217 232.123 156.273 231.632C156.329 231.14 156.574 230.691 156.955 230.382C158.962 228.879 161.243 227.796 163.665 227.195C167.377 226.257 173.142 226.023 179.413 230.265C189.19 236.897 197.214 230.64 197.537 230.358C197.926 230.057 198.414 229.92 198.9 229.977C199.386 230.034 199.831 230.28 200.142 230.663C200.443 231.052 200.581 231.547 200.525 232.038C200.469 232.53 200.223 232.979 199.843 233.288C197.835 234.791 195.555 235.874 193.133 236.475C191.647 236.851 190.121 237.04 188.59 237.038C185.362 237.038 181.489 236.171 177.384 233.405C167.608 226.773 159.584 233.03 159.261 233.311C158.872 233.613 158.383 233.75 157.898 233.693C157.412 233.636 156.966 233.39 156.655 233.007ZM197.537 241.469C197.214 241.75 189.19 248.007 179.413 241.375C173.142 237.133 167.377 237.367 163.665 238.305C161.243 238.906 158.962 239.989 156.955 241.492C156.574 241.801 156.329 242.25 156.273 242.742C156.217 243.233 156.354 243.728 156.655 244.117C156.966 244.5 157.412 244.746 157.898 244.803C158.383 244.86 158.872 244.723 159.261 244.422C159.584 244.14 167.608 237.883 177.384 244.515C181.489 247.281 185.362 248.148 188.59 248.148C190.121 248.15 191.647 247.961 193.133 247.585C195.555 246.984 197.835 245.901 199.843 244.398C200.223 244.089 200.469 243.64 200.525 243.149C200.581 242.657 200.443 242.162 200.142 241.773C199.831 241.39 199.386 241.144 198.9 241.087C198.414 241.03 197.926 241.167 197.537 241.469ZM197.537 252.579C197.214 252.86 189.19 259.118 179.413 252.485C173.142 248.243 167.377 248.478 163.665 249.415C161.243 250.016 158.962 251.1 156.955 252.602C156.574 252.911 156.329 253.36 156.273 253.852C156.217 254.344 156.354 254.838 156.655 255.227C156.966 255.611 157.412 255.857 157.898 255.913C158.383 255.97 158.872 255.833 159.261 255.532C159.584 255.251 167.608 248.993 177.384 255.626C181.489 258.391 185.362 259.258 188.59 259.258C192.638 259.255 196.579 257.942 199.843 255.508C200.223 255.2 200.469 254.751 200.525 254.259C200.581 253.767 200.443 253.273 200.142 252.884C199.831 252.5 199.386 252.254 198.9 252.197C198.414 252.141 197.926 252.277 197.537 252.579Z" fill="#FFF6E7"/>
<path d="M264.712 233.007C264.411 232.618 264.274 232.123 264.33 231.632C264.386 231.14 264.631 230.691 265.012 230.382C267.019 228.879 269.3 227.796 271.722 227.195C275.434 226.257 281.198 226.023 287.47 230.265C297.247 236.897 305.271 230.64 305.594 230.358C305.982 230.057 306.471 229.92 306.957 229.977C307.443 230.034 307.888 230.28 308.199 230.663C308.5 231.052 308.638 231.547 308.582 232.038C308.525 232.53 308.28 232.979 307.899 233.288C305.892 234.791 303.611 235.874 301.19 236.475C299.704 236.851 298.178 237.04 296.647 237.038C293.419 237.038 289.545 236.171 285.441 233.405C275.665 226.773 267.64 233.03 267.318 233.311C266.929 233.613 266.44 233.75 265.954 233.693C265.469 233.636 265.023 233.39 264.712 233.007ZM305.594 241.469C305.271 241.75 297.247 248.007 287.47 241.375C281.198 237.133 275.434 237.367 271.722 238.305C269.3 238.906 267.019 239.989 265.012 241.492C264.631 241.801 264.386 242.25 264.33 242.742C264.274 243.233 264.411 243.728 264.712 244.117C265.023 244.5 265.469 244.746 265.954 244.803C266.44 244.86 266.929 244.723 267.318 244.422C267.64 244.14 275.665 237.883 285.441 244.515C289.545 247.281 293.419 248.148 296.647 248.148C298.178 248.15 299.704 247.961 301.19 247.585C303.611 246.984 305.892 245.901 307.899 244.398C308.28 244.089 308.525 243.64 308.582 243.149C308.638 242.657 308.5 242.162 308.199 241.773C307.888 241.39 307.443 241.144 306.957 241.087C306.471 241.03 305.982 241.167 305.594 241.469ZM305.594 252.579C305.271 252.86 297.247 259.118 287.47 252.485C281.198 248.243 275.434 248.478 271.722 249.415C269.3 250.016 267.019 251.1 265.012 252.602C264.631 252.911 264.386 253.36 264.33 253.852C264.274 254.344 264.411 254.838 264.712 255.227C265.023 255.611 265.469 255.857 265.954 255.913C266.44 255.97 266.929 255.833 267.318 255.532C267.64 255.251 275.665 248.993 285.441 255.626C289.545 258.391 293.419 259.258 296.647 259.258C300.695 259.255 304.636 257.942 307.899 255.508C308.28 255.2 308.525 254.751 308.582 254.259C308.638 253.767 308.5 253.273 308.199 252.884C307.888 252.5 307.443 252.254 306.957 252.197C306.471 252.141 305.982 252.277 305.594 252.579Z" fill="#FFF6E7"/>
</svg>
