<svg width="357" height="262" viewBox="0 0 357 262" fill="none" xmlns="http://www.w3.org/2000/svg">
<path d="M16.6091 31.5717C35.4953 31.5717 37.0168 15.5041 37.1384 7.86838C37.1396 7.66067 37.099 7.45485 37.0192 7.2631C36.9393 7.07135 36.8218 6.89756 36.6736 6.75202C36.5254 6.60647 36.3496 6.49214 36.1564 6.41577C35.9632 6.33941 35.7567 6.30257 35.5491 6.30743C8.70959 6.80036 8.70959 19.8125 8.70959 31.5717V37.8914" stroke="#FFF6E7" stroke-width="4" stroke-linecap="round" stroke-linejoin="round"/>
<path d="M8.70959 31.5717C8.70959 31.5717 8.70959 22.0922 21.3489 20.5123" stroke="#FFF6E7" stroke-width="4" stroke-linecap="round" stroke-linejoin="round"/>
<path d="M16.6091 250.25C35.4953 250.25 37.0168 234.182 37.1384 226.547C37.1396 226.339 37.099 226.133 37.0192 225.941C36.9393 225.75 36.8218 225.576 36.6736 225.43C36.5254 225.285 36.3496 225.17 36.1564 225.094C35.9632 225.018 35.7567 224.981 35.5491 224.986C8.70959 225.479 8.70959 238.491 8.70959 250.25V256.57" stroke="#FFF6E7" stroke-width="4" stroke-linecap="round" stroke-linejoin="round"/>
<path d="M8.70959 250.25C8.70959 250.25 8.70959 240.771 21.3489 239.191" stroke="#FFF6E7" stroke-width="4" stroke-linecap="round" stroke-linejoin="round"/>
<path d="M140.67 31.5717C159.556 31.5717 161.078 15.5041 161.199 7.86838C161.2 7.66067 161.16 7.45485 161.08 7.2631C161 7.07135 160.883 6.89756 160.735 6.75202C160.586 6.60647 160.41 6.49214 160.217 6.41577C160.024 6.33941 159.818 6.30257 159.61 6.30743C132.771 6.80036 132.771 19.8125 132.771 31.5717V37.8914" stroke="#FFF6E7" stroke-width="4" stroke-linecap="round" stroke-linejoin="round"/>
<path d="M132.771 31.5717C132.771 31.5717 132.771 22.0922 145.41 20.5123" stroke="#FFF6E7" stroke-width="4" stroke-linecap="round" stroke-linejoin="round"/>
<path d="M78.6395 135.485C97.5257 135.485 99.0472 119.417 99.1688 111.782C99.17 111.574 99.1294 111.368 99.0496 111.176C98.9697 110.985 98.8522 110.811 98.704 110.665C98.5558 110.52 98.38 110.405 98.1868 110.329C97.9936 110.253 97.7871 110.216 97.5795 110.221C70.74 110.714 70.74 123.726 70.74 135.485V141.805" stroke="#FFF6E7" stroke-width="4" stroke-linecap="round" stroke-linejoin="round"/>
<path d="M70.74 135.485C70.74 135.485 70.74 126.006 83.3792 124.426" stroke="#FFF6E7" stroke-width="4" stroke-linecap="round" stroke-linejoin="round"/>
<path d="M140.67 250.25C159.556 250.25 161.078 234.182 161.199 226.547C161.2 226.339 161.16 226.133 161.08 225.941C161 225.75 160.883 225.576 160.735 225.43C160.586 225.285 160.41 225.17 160.217 225.094C160.024 225.018 159.818 224.981 159.61 224.986C132.771 225.479 132.771 238.491 132.771 250.25V256.57" stroke="#FFF6E7" stroke-width="4" stroke-linecap="round" stroke-linejoin="round"/>
<path d="M132.771 250.25C132.771 250.25 132.771 240.771 145.41 239.191" stroke="#FFF6E7" stroke-width="4" stroke-linecap="round" stroke-linejoin="round"/>
<path d="M264.731 31.5717C283.617 31.5717 285.138 15.5041 285.26 7.86838C285.261 7.66067 285.221 7.45485 285.141 7.2631C285.061 7.07135 284.943 6.89756 284.795 6.75202C284.647 6.60647 284.471 6.49214 284.278 6.41577C284.085 6.33941 283.878 6.30257 283.671 6.30743C256.831 6.80036 256.831 19.8125 256.831 31.5717V37.8914" stroke="#FFF6E7" stroke-width="4" stroke-linecap="round" stroke-linejoin="round"/>
<path d="M256.831 31.5717C256.831 31.5717 256.831 22.0922 269.47 20.5123" stroke="#FFF6E7" stroke-width="4" stroke-linecap="round" stroke-linejoin="round"/>
<path d="M202.7 135.485C221.587 135.485 223.108 119.417 223.23 111.782C223.231 111.574 223.19 111.368 223.11 111.176C223.031 110.985 222.913 110.811 222.765 110.665C222.617 110.52 222.441 110.405 222.248 110.329C222.054 110.253 221.848 110.216 221.64 110.221C194.801 110.714 194.801 123.726 194.801 135.485V141.805" stroke="#FFF6E7" stroke-width="4" stroke-linecap="round" stroke-linejoin="round"/>
<path d="M194.801 135.485C194.801 135.485 194.801 126.006 207.44 124.426" stroke="#FFF6E7" stroke-width="4" stroke-linecap="round" stroke-linejoin="round"/>
<path d="M264.731 250.25C283.617 250.25 285.138 234.182 285.26 226.547C285.261 226.339 285.221 226.133 285.141 225.941C285.061 225.75 284.943 225.576 284.795 225.43C284.647 225.285 284.471 225.17 284.278 225.094C284.085 225.018 283.878 224.981 283.671 224.986C256.831 225.479 256.831 238.491 256.831 250.25V256.57" stroke="#FFF6E7" stroke-width="4" stroke-linecap="round" stroke-linejoin="round"/>
<path d="M256.831 250.25C256.831 250.25 256.831 240.771 269.47 239.191" stroke="#FFF6E7" stroke-width="4" stroke-linecap="round" stroke-linejoin="round"/>
<path d="M326.761 135.485C345.647 135.485 347.169 119.417 347.29 111.782C347.292 111.574 347.251 111.368 347.171 111.176C347.091 110.985 346.974 110.811 346.826 110.665C346.677 110.52 346.502 110.405 346.308 110.329C346.115 110.253 345.909 110.216 345.701 110.221C318.862 110.714 318.862 123.726 318.862 135.485V141.805" stroke="#FFF6E7" stroke-width="4" stroke-linecap="round" stroke-linejoin="round"/>
<path d="M318.862 135.485C318.862 135.485 318.862 126.006 331.501 124.426" stroke="#FFF6E7" stroke-width="4" stroke-linecap="round" stroke-linejoin="round"/>
<path d="M96.1179 19.8663C82.7633 6.51178 70.326 16.7975 64.8407 22.1107C64.693 22.2568 64.5762 22.431 64.497 22.6231C64.4179 22.8151 64.3781 23.0211 64.38 23.2288C64.3819 23.4365 64.4254 23.6417 64.508 23.8323C64.5905 24.0229 64.7105 24.195 64.8608 24.3383C84.1877 42.9682 93.3887 33.7672 101.704 25.4522L106.172 20.9835" stroke="#FFF6E7" stroke-width="4" stroke-linecap="round" stroke-linejoin="round"/>
<path d="M101.704 25.4522C101.704 25.4522 95.0007 32.1552 84.9462 24.335" stroke="#FFF6E7" stroke-width="4" stroke-linecap="round" stroke-linejoin="round"/>
<path d="M34.0875 123.78C20.7329 110.425 8.29557 120.711 2.8103 126.024C2.66264 126.17 2.54578 126.344 2.46665 126.537C2.38751 126.729 2.34771 126.935 2.34958 127.142C2.35146 127.35 2.39497 127.555 2.47756 127.746C2.56015 127.936 2.68013 128.108 2.8304 128.252C22.1573 146.882 31.3583 137.681 39.6733 129.366L44.142 124.897" stroke="#FFF6E7" stroke-width="4" stroke-linecap="round" stroke-linejoin="round"/>
<path d="M39.6732 129.366C39.6732 129.366 32.9702 136.069 22.9157 128.249" stroke="#FFF6E7" stroke-width="4" stroke-linecap="round" stroke-linejoin="round"/>
<path d="M96.1179 238.545C82.7633 225.19 70.326 235.476 64.8407 240.789C64.693 240.935 64.5762 241.109 64.497 241.301C64.4179 241.493 64.3781 241.699 64.38 241.907C64.3819 242.115 64.4254 242.32 64.508 242.511C64.5905 242.701 64.7105 242.873 64.8608 243.017C84.1877 261.647 93.3887 252.446 101.704 244.131L106.172 239.662" stroke="#FFF6E7" stroke-width="4" stroke-linecap="round" stroke-linejoin="round"/>
<path d="M101.704 244.131C101.704 244.131 95.0007 250.834 84.9462 243.013" stroke="#FFF6E7" stroke-width="4" stroke-linecap="round" stroke-linejoin="round"/>
<path d="M220.179 19.8663C206.824 6.51178 194.387 16.7975 188.901 22.1107C188.754 22.2568 188.637 22.431 188.558 22.6231C188.479 22.8151 188.439 23.0211 188.441 23.2288C188.443 23.4365 188.486 23.6417 188.569 23.8323C188.651 24.0229 188.771 24.195 188.922 24.3383C208.249 42.9682 217.449 33.7672 225.765 25.4522L230.233 20.9835" stroke="#FFF6E7" stroke-width="4" stroke-linecap="round" stroke-linejoin="round"/>
<path d="M225.764 25.4522C225.764 25.4522 219.061 32.1552 209.007 24.335" stroke="#FFF6E7" stroke-width="4" stroke-linecap="round" stroke-linejoin="round"/>
<path d="M158.148 123.78C144.794 110.425 132.356 120.711 126.871 126.024C126.723 126.17 126.606 126.344 126.527 126.537C126.448 126.729 126.408 126.935 126.41 127.142C126.412 127.35 126.456 127.555 126.538 127.746C126.621 127.936 126.741 128.108 126.891 128.252C146.218 146.882 155.419 137.681 163.734 129.366L168.203 124.897" stroke="#FFF6E7" stroke-width="4" stroke-linecap="round" stroke-linejoin="round"/>
<path d="M163.734 129.366C163.734 129.366 157.031 136.069 146.976 128.249" stroke="#FFF6E7" stroke-width="4" stroke-linecap="round" stroke-linejoin="round"/>
<path d="M220.179 238.545C206.824 225.19 194.387 235.476 188.901 240.789C188.754 240.935 188.637 241.109 188.558 241.301C188.479 241.493 188.439 241.699 188.441 241.907C188.443 242.115 188.486 242.32 188.569 242.511C188.651 242.701 188.771 242.873 188.922 243.017C208.249 261.647 217.449 252.446 225.765 244.131L230.233 239.662" stroke="#FFF6E7" stroke-width="4" stroke-linecap="round" stroke-linejoin="round"/>
<path d="M225.764 244.131C225.764 244.131 219.061 250.834 209.007 243.013" stroke="#FFF6E7" stroke-width="4" stroke-linecap="round" stroke-linejoin="round"/>
<path d="M344.239 19.8663C330.885 6.51178 318.448 16.7975 312.962 22.1107C312.815 22.2568 312.698 22.431 312.619 22.6231C312.539 22.8151 312.5 23.0211 312.502 23.2288C312.503 23.4365 312.547 23.6417 312.63 23.8323C312.712 24.0229 312.832 24.195 312.982 24.3383C332.309 42.9682 341.51 33.7672 349.825 25.4522L354.294 20.9835" stroke="#FFF6E7" stroke-width="4" stroke-linecap="round" stroke-linejoin="round"/>
<path d="M349.825 25.4522C349.825 25.4522 343.122 32.1552 333.068 24.335" stroke="#FFF6E7" stroke-width="4" stroke-linecap="round" stroke-linejoin="round"/>
<path d="M282.209 123.78C268.854 110.425 256.417 120.711 250.932 126.024C250.784 126.17 250.667 126.344 250.588 126.537C250.509 126.729 250.469 126.935 250.471 127.142C250.473 127.35 250.516 127.555 250.599 127.746C250.682 127.936 250.802 128.108 250.952 128.252C270.279 146.882 279.48 137.681 287.795 129.366L292.263 124.897" stroke="#FFF6E7" stroke-width="4" stroke-linecap="round" stroke-linejoin="round"/>
<path d="M287.795 129.366C287.795 129.366 281.092 136.069 271.037 128.249" stroke="#FFF6E7" stroke-width="4" stroke-linecap="round" stroke-linejoin="round"/>
<path d="M344.239 238.545C330.885 225.19 318.448 235.476 312.962 240.789C312.815 240.935 312.698 241.109 312.619 241.301C312.539 241.493 312.5 241.699 312.502 241.907C312.503 242.115 312.547 242.32 312.63 242.511C312.712 242.701 312.832 242.873 312.982 243.017C332.309 261.647 341.51 252.446 349.825 244.131L354.294 239.662" stroke="#FFF6E7" stroke-width="4" stroke-linecap="round" stroke-linejoin="round"/>
<path d="M349.825 244.131C349.825 244.131 343.122 250.834 333.068 243.013" stroke="#FFF6E7" stroke-width="4" stroke-linecap="round" stroke-linejoin="round"/>
</svg>
