<svg width="358" height="266" viewBox="0 0 358 266" fill="none" xmlns="http://www.w3.org/2000/svg">
<path d="M46.0722 24.0076C45.8764 23.6686 45.614 23.3722 45.3006 23.1362C44.9872 22.9001 44.6293 22.7292 44.248 22.6336C42.569 22.2131 40.8268 22.1013 39.1073 22.3038C39.5521 19.804 39.3879 17.2345 38.6282 14.8108C38.4065 14.1214 37.9347 13.5387 37.3045 13.1763C36.6743 12.8139 35.9311 12.6978 35.2195 12.8505C33.5074 13.2275 31.874 13.897 30.392 14.8291C29.2106 12.3547 27.4549 10.1947 25.2696 8.52691C24.7606 8.14352 24.1394 7.93604 23.5008 7.93604C22.8622 7.93604 22.241 8.14352 21.7319 8.52691C19.5466 10.1947 17.791 12.3547 16.6096 14.8291C15.1276 13.897 13.4942 13.2275 11.7821 12.8505C11.0705 12.6978 10.3272 12.8139 9.69707 13.1763C9.06691 13.5387 8.59502 14.1214 8.37334 14.8108C7.6137 17.2345 7.44942 19.804 7.89427 22.3038C6.17479 22.1013 4.43257 22.2131 2.75352 22.6336C2.3727 22.729 2.01505 22.8995 1.70184 23.1351C1.38864 23.3706 1.12626 23.6664 0.930304 24.0048C0.734351 24.3432 0.608824 24.7173 0.561186 25.1049C0.513547 25.4925 0.544769 25.8856 0.652995 26.261C1.29789 28.5694 3.28786 32.9846 9.33147 36.4471C15.3751 39.9097 20.6448 39.8913 23.4824 39.8913H23.5192C26.3568 39.8913 31.6633 39.8913 37.6701 36.4471C43.6768 33.0029 45.7037 28.5694 46.3486 26.261C46.4555 25.886 46.4861 25.4935 46.4387 25.1066C46.3912 24.7197 46.2666 24.3461 46.0722 24.0076ZM35.8275 15.7268C36.3434 17.2657 36.8225 20.0321 35.7723 23.5862L35.717 23.7878C35.2903 25.1642 34.7028 26.4862 33.9665 27.7266C33.0729 29.2603 31.9964 30.6813 30.7605 31.9586C31.7002 29.7602 32.3451 27.0671 32.3451 23.7694C32.3603 21.6865 32.0686 19.6126 31.4791 17.6138C32.7913 16.7095 34.2684 16.0686 35.8275 15.7268ZM23.5008 10.8719C25.2696 12.191 29.397 16.0749 29.397 23.7694C29.397 31.464 25.2144 35.4212 23.5008 36.667C21.7872 35.4212 17.6046 31.5556 17.6046 23.7694C17.6046 15.9833 21.7319 12.191 23.5008 10.8719ZM11.174 15.7268C12.7332 16.0686 14.2103 16.7095 15.5225 17.6138C14.933 19.6126 14.6412 21.6865 14.6565 23.7694C14.6565 27.0671 15.3014 29.7602 16.2411 31.9586C15.0051 30.6813 13.9287 29.2603 13.035 27.7266C12.2951 26.4816 11.7075 25.1531 11.2846 23.7694L11.2293 23.6046C10.1606 20.0321 10.6581 17.2657 11.174 15.7268ZM3.47212 25.4732C4.61451 25.1801 6.40179 24.9603 8.705 25.3633C9.17272 26.6949 9.77137 27.9775 10.4923 29.1923C12.0723 31.9066 14.1467 34.3046 16.6096 36.2639C14.5744 35.7465 12.6211 34.9512 10.8055 33.9006C5.68319 30.951 4.02489 27.3419 3.47212 25.4732ZM36.196 33.9006C34.3804 34.9512 32.4272 35.7465 30.392 36.2639C32.8548 34.3046 34.9293 31.9066 36.5093 29.1923C37.2302 27.9775 37.8288 26.6949 38.2966 25.3633C40.0223 25.0342 41.798 25.0654 43.511 25.4549C42.9767 27.3419 41.3184 30.951 36.196 33.9006Z" fill="#FFF6E7"/>
<path d="M46.0722 243.008C45.8764 242.669 45.614 242.372 45.3006 242.136C44.9872 241.9 44.6293 241.729 44.248 241.634C42.569 241.213 40.8268 241.101 39.1073 241.304C39.5521 238.804 39.3879 236.235 38.6282 233.811C38.4065 233.121 37.9347 232.539 37.3045 232.176C36.6743 231.814 35.9311 231.698 35.2195 231.851C33.5074 232.228 31.874 232.897 30.392 233.829C29.2106 231.355 27.4549 229.195 25.2696 227.527C24.7606 227.144 24.1394 226.936 23.5008 226.936C22.8622 226.936 22.241 227.144 21.7319 227.527C19.5466 229.195 17.791 231.355 16.6096 233.829C15.1276 232.897 13.4942 232.228 11.7821 231.851C11.0705 231.698 10.3272 231.814 9.69707 232.176C9.06691 232.539 8.59502 233.121 8.37334 233.811C7.6137 236.235 7.44942 238.804 7.89427 241.304C6.17479 241.101 4.43257 241.213 2.75352 241.634C2.3727 241.729 2.01505 241.9 1.70184 242.135C1.38864 242.371 1.12626 242.666 0.930304 243.005C0.734351 243.343 0.608824 243.717 0.561186 244.105C0.513547 244.492 0.544769 244.886 0.652995 245.261C1.29789 247.569 3.28786 251.985 9.33147 255.447C15.3751 258.91 20.6448 258.891 23.4824 258.891H23.5192C26.3568 258.891 31.6633 258.891 37.6701 255.447C43.6768 252.003 45.7037 247.569 46.3486 245.261C46.4555 244.886 46.4861 244.494 46.4387 244.107C46.3912 243.72 46.2666 243.346 46.0722 243.008ZM35.8275 234.727C36.3434 236.266 36.8225 239.032 35.7723 242.586L35.717 242.788C35.2903 244.164 34.7028 245.486 33.9665 246.727C33.0729 248.26 31.9964 249.681 30.7605 250.959C31.7002 248.76 32.3451 246.067 32.3451 242.769C32.3603 240.687 32.0686 238.613 31.4791 236.614C32.7913 235.71 34.2684 235.069 35.8275 234.727ZM23.5008 229.872C25.2696 231.191 29.397 235.075 29.397 242.769C29.397 250.464 25.2144 254.421 23.5008 255.667C21.7872 254.421 17.6046 250.556 17.6046 242.769C17.6046 234.983 21.7319 231.191 23.5008 229.872ZM11.174 234.727C12.7332 235.069 14.2103 235.71 15.5225 236.614C14.933 238.613 14.6412 240.687 14.6565 242.769C14.6565 246.067 15.3014 248.76 16.2411 250.959C15.0051 249.681 13.9287 248.26 13.035 246.727C12.2951 245.482 11.7075 244.153 11.2846 242.769L11.2293 242.605C10.1606 239.032 10.6581 236.266 11.174 234.727ZM3.47212 244.473C4.61451 244.18 6.40179 243.96 8.705 244.363C9.17272 245.695 9.77137 246.977 10.4923 248.192C12.0723 250.907 14.1467 253.305 16.6096 255.264C14.5744 254.747 12.6211 253.951 10.8055 252.901C5.68319 249.951 4.02489 246.342 3.47212 244.473ZM36.196 252.901C34.3804 253.951 32.4272 254.747 30.392 255.264C32.8548 253.305 34.9293 250.907 36.5093 248.192C37.2302 246.977 37.8288 245.695 38.2966 244.363C40.0223 244.034 41.798 244.065 43.511 244.455C42.9767 246.342 41.3184 249.951 36.196 252.901Z" fill="#FFF6E7"/>
<path d="M170.072 24.0076C169.876 23.6686 169.614 23.3722 169.301 23.1362C168.987 22.9001 168.629 22.7292 168.248 22.6336C166.569 22.2131 164.827 22.1013 163.107 22.3038C163.552 19.804 163.388 17.2345 162.628 14.8108C162.407 14.1214 161.935 13.5387 161.304 13.1763C160.674 12.8139 159.931 12.6978 159.219 12.8505C157.507 13.2275 155.874 13.897 154.392 14.8291C153.211 12.3547 151.455 10.1947 149.27 8.52691C148.761 8.14352 148.139 7.93604 147.501 7.93604C146.862 7.93604 146.241 8.14352 145.732 8.52691C143.547 10.1947 141.791 12.3547 140.61 14.8291C139.128 13.897 137.494 13.2275 135.782 12.8505C135.071 12.6978 134.327 12.8139 133.697 13.1763C133.067 13.5387 132.595 14.1214 132.373 14.8108C131.614 17.2345 131.449 19.804 131.894 22.3038C130.175 22.1013 128.433 22.2131 126.754 22.6336C126.373 22.729 126.015 22.8995 125.702 23.1351C125.389 23.3706 125.126 23.6664 124.93 24.0048C124.734 24.3432 124.609 24.7173 124.561 25.1049C124.514 25.4925 124.545 25.8856 124.653 26.261C125.298 28.5694 127.288 32.9846 133.331 36.4471C139.375 39.9097 144.645 39.8913 147.482 39.8913H147.519C150.357 39.8913 155.663 39.8913 161.67 36.4471C167.677 33.0029 169.704 28.5694 170.349 26.261C170.456 25.886 170.486 25.4935 170.439 25.1066C170.391 24.7197 170.267 24.3461 170.072 24.0076ZM159.828 15.7268C160.343 17.2657 160.823 20.0321 159.772 23.5862L159.717 23.7878C159.29 25.1642 158.703 26.4862 157.967 27.7266C157.073 29.2603 155.996 30.6813 154.76 31.9586C155.7 29.7602 156.345 27.0671 156.345 23.7694C156.36 21.6865 156.069 19.6126 155.479 17.6138C156.791 16.7095 158.268 16.0686 159.828 15.7268ZM147.501 10.8719C149.27 12.191 153.397 16.0749 153.397 23.7694C153.397 31.464 149.214 35.4212 147.501 36.667C145.787 35.4212 141.605 31.5556 141.605 23.7694C141.605 15.9833 145.732 12.191 147.501 10.8719ZM135.174 15.7268C136.733 16.0686 138.21 16.7095 139.522 17.6138C138.933 19.6126 138.641 21.6865 138.656 23.7694C138.656 27.0671 139.301 29.7602 140.241 31.9586C139.005 30.6813 137.929 29.2603 137.035 27.7266C136.295 26.4816 135.707 25.1531 135.285 23.7694L135.229 23.6046C134.161 20.0321 134.658 17.2657 135.174 15.7268ZM127.472 25.4732C128.615 25.1801 130.402 24.9603 132.705 25.3633C133.173 26.6949 133.771 27.9775 134.492 29.1923C136.072 31.9066 138.147 34.3046 140.61 36.2639C138.574 35.7465 136.621 34.9512 134.806 33.9006C129.683 30.951 128.025 27.3419 127.472 25.4732ZM160.196 33.9006C158.38 34.9512 156.427 35.7465 154.392 36.2639C156.855 34.3046 158.929 31.9066 160.509 29.1923C161.23 27.9775 161.829 26.6949 162.297 25.3633C164.022 25.0342 165.798 25.0654 167.511 25.4549C166.977 27.3419 165.318 30.951 160.196 33.9006Z" fill="#FFF6E7"/>
<path d="M108.072 128.008C107.876 127.669 107.614 127.372 107.301 127.136C106.987 126.9 106.629 126.729 106.248 126.634C104.569 126.213 102.827 126.101 101.107 126.304C101.552 123.804 101.388 121.235 100.628 118.811C100.407 118.121 99.9347 117.539 99.3045 117.176C98.6743 116.814 97.9311 116.698 97.2195 116.851C95.5074 117.228 93.874 117.897 92.392 118.829C91.2106 116.355 89.4549 114.195 87.2696 112.527C86.7606 112.144 86.1394 111.936 85.5008 111.936C84.8622 111.936 84.241 112.144 83.7319 112.527C81.5466 114.195 79.791 116.355 78.6096 118.829C77.1276 117.897 75.4942 117.228 73.7821 116.851C73.0705 116.698 72.3272 116.814 71.6971 117.176C71.0669 117.539 70.595 118.121 70.3733 118.811C69.6137 121.235 69.4494 123.804 69.8943 126.304C68.1748 126.101 66.4326 126.213 64.7535 126.634C64.3727 126.729 64.0151 126.9 63.7018 127.135C63.3886 127.371 63.1263 127.666 62.9303 128.005C62.7344 128.343 62.6088 128.717 62.5612 129.105C62.5135 129.492 62.5448 129.886 62.653 130.261C63.2979 132.569 65.2879 136.985 71.3315 140.447C77.3751 143.91 82.6448 143.891 85.4824 143.891H85.5192C88.3568 143.891 93.6633 143.891 99.6701 140.447C105.677 137.003 107.704 132.569 108.349 130.261C108.456 129.886 108.486 129.494 108.439 129.107C108.391 128.72 108.267 128.346 108.072 128.008ZM97.8275 119.727C98.3434 121.266 98.8225 124.032 97.7723 127.586L97.717 127.788C97.2903 129.164 96.7028 130.486 95.9665 131.727C95.0729 133.26 93.9964 134.681 92.7605 135.959C93.7002 133.76 94.3451 131.067 94.3451 127.769C94.3603 125.687 94.0686 123.613 93.4791 121.614C94.7913 120.71 96.2684 120.069 97.8275 119.727ZM85.5008 114.872C87.2696 116.191 91.397 120.075 91.397 127.769C91.397 135.464 87.2144 139.421 85.5008 140.667C83.7872 139.421 79.6046 135.556 79.6046 127.769C79.6046 119.983 83.7319 116.191 85.5008 114.872ZM73.174 119.727C74.7332 120.069 76.2103 120.71 77.5225 121.614C76.933 123.613 76.6412 125.687 76.6565 127.769C76.6565 131.067 77.3014 133.76 78.2411 135.959C77.0051 134.681 75.9287 133.26 75.035 131.727C74.2951 130.482 73.7075 129.153 73.2846 127.769L73.2293 127.605C72.1606 124.032 72.6581 121.266 73.174 119.727ZM65.4721 129.473C66.6145 129.18 68.4018 128.96 70.705 129.363C71.1727 130.695 71.7714 131.977 72.4923 133.192C74.0723 135.907 76.1467 138.305 78.6096 140.264C76.5744 139.747 74.6211 138.951 72.8055 137.901C67.6832 134.951 66.0249 131.342 65.4721 129.473ZM98.196 137.901C96.3804 138.951 94.4272 139.747 92.392 140.264C94.8548 138.305 96.9293 135.907 98.5093 133.192C99.2302 131.977 99.8288 130.695 100.297 129.363C102.022 129.034 103.798 129.065 105.511 129.455C104.977 131.342 103.318 134.951 98.196 137.901Z" fill="#FFF6E7"/>
<path d="M170.072 243.008C169.876 242.669 169.614 242.372 169.301 242.136C168.987 241.9 168.629 241.729 168.248 241.634C166.569 241.213 164.827 241.101 163.107 241.304C163.552 238.804 163.388 236.235 162.628 233.811C162.407 233.121 161.935 232.539 161.304 232.176C160.674 231.814 159.931 231.698 159.219 231.851C157.507 232.228 155.874 232.897 154.392 233.829C153.211 231.355 151.455 229.195 149.27 227.527C148.761 227.144 148.139 226.936 147.501 226.936C146.862 226.936 146.241 227.144 145.732 227.527C143.547 229.195 141.791 231.355 140.61 233.829C139.128 232.897 137.494 232.228 135.782 231.851C135.071 231.698 134.327 231.814 133.697 232.176C133.067 232.539 132.595 233.121 132.373 233.811C131.614 236.235 131.449 238.804 131.894 241.304C130.175 241.101 128.433 241.213 126.754 241.634C126.373 241.729 126.015 241.9 125.702 242.135C125.389 242.371 125.126 242.666 124.93 243.005C124.734 243.343 124.609 243.717 124.561 244.105C124.514 244.492 124.545 244.886 124.653 245.261C125.298 247.569 127.288 251.985 133.331 255.447C139.375 258.91 144.645 258.891 147.482 258.891H147.519C150.357 258.891 155.663 258.891 161.67 255.447C167.677 252.003 169.704 247.569 170.349 245.261C170.456 244.886 170.486 244.494 170.439 244.107C170.391 243.72 170.267 243.346 170.072 243.008ZM159.828 234.727C160.343 236.266 160.823 239.032 159.772 242.586L159.717 242.788C159.29 244.164 158.703 245.486 157.967 246.727C157.073 248.26 155.996 249.681 154.76 250.959C155.7 248.76 156.345 246.067 156.345 242.769C156.36 240.687 156.069 238.613 155.479 236.614C156.791 235.71 158.268 235.069 159.828 234.727ZM147.501 229.872C149.27 231.191 153.397 235.075 153.397 242.769C153.397 250.464 149.214 254.421 147.501 255.667C145.787 254.421 141.605 250.556 141.605 242.769C141.605 234.983 145.732 231.191 147.501 229.872ZM135.174 234.727C136.733 235.069 138.21 235.71 139.522 236.614C138.933 238.613 138.641 240.687 138.656 242.769C138.656 246.067 139.301 248.76 140.241 250.959C139.005 249.681 137.929 248.26 137.035 246.727C136.295 245.482 135.707 244.153 135.285 242.769L135.229 242.605C134.161 239.032 134.658 236.266 135.174 234.727ZM127.472 244.473C128.615 244.18 130.402 243.96 132.705 244.363C133.173 245.695 133.771 246.977 134.492 248.192C136.072 250.907 138.147 253.305 140.61 255.264C138.574 254.747 136.621 253.951 134.806 252.901C129.683 249.951 128.025 246.342 127.472 244.473ZM160.196 252.901C158.38 253.951 156.427 254.747 154.392 255.264C156.855 253.305 158.929 250.907 160.509 248.192C161.23 246.977 161.829 245.695 162.297 244.363C164.022 244.034 165.798 244.065 167.511 244.455C166.977 246.342 165.318 249.951 160.196 252.901Z" fill="#FFF6E7"/>
<path d="M295.072 24.0076C294.876 23.6686 294.614 23.3722 294.301 23.1362C293.987 22.9001 293.629 22.7292 293.248 22.6336C291.569 22.2131 289.827 22.1013 288.107 22.3038C288.552 19.804 288.388 17.2345 287.628 14.8108C287.407 14.1214 286.935 13.5387 286.304 13.1763C285.674 12.8139 284.931 12.6978 284.219 12.8505C282.507 13.2275 280.874 13.897 279.392 14.8291C278.211 12.3547 276.455 10.1947 274.27 8.52691C273.761 8.14352 273.139 7.93604 272.501 7.93604C271.862 7.93604 271.241 8.14352 270.732 8.52691C268.547 10.1947 266.791 12.3547 265.61 14.8291C264.128 13.897 262.494 13.2275 260.782 12.8505C260.071 12.6978 259.327 12.8139 258.697 13.1763C258.067 13.5387 257.595 14.1214 257.373 14.8108C256.614 17.2345 256.449 19.804 256.894 22.3038C255.175 22.1013 253.433 22.2131 251.754 22.6336C251.373 22.729 251.015 22.8995 250.702 23.1351C250.389 23.3706 250.126 23.6664 249.93 24.0048C249.734 24.3432 249.609 24.7173 249.561 25.1049C249.514 25.4925 249.545 25.8856 249.653 26.261C250.298 28.5694 252.288 32.9846 258.331 36.4471C264.375 39.9097 269.645 39.8913 272.482 39.8913H272.519C275.357 39.8913 280.663 39.8913 286.67 36.4471C292.677 33.0029 294.704 28.5694 295.349 26.261C295.456 25.886 295.486 25.4935 295.439 25.1066C295.391 24.7197 295.267 24.3461 295.072 24.0076ZM284.828 15.7268C285.343 17.2657 285.823 20.0321 284.772 23.5862L284.717 23.7878C284.29 25.1642 283.703 26.4862 282.967 27.7266C282.073 29.2603 280.996 30.6813 279.76 31.9586C280.7 29.7602 281.345 27.0671 281.345 23.7694C281.36 21.6865 281.069 19.6126 280.479 17.6138C281.791 16.7095 283.268 16.0686 284.828 15.7268ZM272.501 10.8719C274.27 12.191 278.397 16.0749 278.397 23.7694C278.397 31.464 274.214 35.4212 272.501 36.667C270.787 35.4212 266.605 31.5556 266.605 23.7694C266.605 15.9833 270.732 12.191 272.501 10.8719ZM260.174 15.7268C261.733 16.0686 263.21 16.7095 264.522 17.6138C263.933 19.6126 263.641 21.6865 263.656 23.7694C263.656 27.0671 264.301 29.7602 265.241 31.9586C264.005 30.6813 262.929 29.2603 262.035 27.7266C261.295 26.4816 260.707 25.1531 260.285 23.7694L260.229 23.6046C259.161 20.0321 259.658 17.2657 260.174 15.7268ZM252.472 25.4732C253.615 25.1801 255.402 24.9603 257.705 25.3633C258.173 26.6949 258.771 27.9775 259.492 29.1923C261.072 31.9066 263.147 34.3046 265.61 36.2639C263.574 35.7465 261.621 34.9512 259.806 33.9006C254.683 30.951 253.025 27.3419 252.472 25.4732ZM285.196 33.9006C283.38 34.9512 281.427 35.7465 279.392 36.2639C281.855 34.3046 283.929 31.9066 285.509 29.1923C286.23 27.9775 286.829 26.6949 287.297 25.3633C289.022 25.0342 290.798 25.0654 292.511 25.4549C291.977 27.3419 290.318 30.951 285.196 33.9006Z" fill="#FFF6E7"/>
<path d="M232.072 128.008C231.876 127.669 231.614 127.372 231.301 127.136C230.987 126.9 230.629 126.729 230.248 126.634C228.569 126.213 226.827 126.101 225.107 126.304C225.552 123.804 225.388 121.235 224.628 118.811C224.407 118.121 223.935 117.539 223.304 117.176C222.674 116.814 221.931 116.698 221.219 116.851C219.507 117.228 217.874 117.897 216.392 118.829C215.211 116.355 213.455 114.195 211.27 112.527C210.761 112.144 210.139 111.936 209.501 111.936C208.862 111.936 208.241 112.144 207.732 112.527C205.547 114.195 203.791 116.355 202.61 118.829C201.128 117.897 199.494 117.228 197.782 116.851C197.071 116.698 196.327 116.814 195.697 117.176C195.067 117.539 194.595 118.121 194.373 118.811C193.614 121.235 193.449 123.804 193.894 126.304C192.175 126.101 190.433 126.213 188.754 126.634C188.373 126.729 188.015 126.9 187.702 127.135C187.389 127.371 187.126 127.666 186.93 128.005C186.734 128.343 186.609 128.717 186.561 129.105C186.514 129.492 186.545 129.886 186.653 130.261C187.298 132.569 189.288 136.985 195.331 140.447C201.375 143.91 206.645 143.891 209.482 143.891H209.519C212.357 143.891 217.663 143.891 223.67 140.447C229.677 137.003 231.704 132.569 232.349 130.261C232.456 129.886 232.486 129.494 232.439 129.107C232.391 128.72 232.267 128.346 232.072 128.008ZM221.828 119.727C222.343 121.266 222.823 124.032 221.772 127.586L221.717 127.788C221.29 129.164 220.703 130.486 219.967 131.727C219.073 133.26 217.996 134.681 216.76 135.959C217.7 133.76 218.345 131.067 218.345 127.769C218.36 125.687 218.069 123.613 217.479 121.614C218.791 120.71 220.268 120.069 221.828 119.727ZM209.501 114.872C211.27 116.191 215.397 120.075 215.397 127.769C215.397 135.464 211.214 139.421 209.501 140.667C207.787 139.421 203.605 135.556 203.605 127.769C203.605 119.983 207.732 116.191 209.501 114.872ZM197.174 119.727C198.733 120.069 200.21 120.71 201.522 121.614C200.933 123.613 200.641 125.687 200.656 127.769C200.656 131.067 201.301 133.76 202.241 135.959C201.005 134.681 199.929 133.26 199.035 131.727C198.295 130.482 197.707 129.153 197.285 127.769L197.229 127.605C196.161 124.032 196.658 121.266 197.174 119.727ZM189.472 129.473C190.615 129.18 192.402 128.96 194.705 129.363C195.173 130.695 195.771 131.977 196.492 133.192C198.072 135.907 200.147 138.305 202.61 140.264C200.574 139.747 198.621 138.951 196.806 137.901C191.683 134.951 190.025 131.342 189.472 129.473ZM222.196 137.901C220.38 138.951 218.427 139.747 216.392 140.264C218.855 138.305 220.929 135.907 222.509 133.192C223.23 131.977 223.829 130.695 224.297 129.363C226.022 129.034 227.798 129.065 229.511 129.455C228.977 131.342 227.318 134.951 222.196 137.901Z" fill="#FFF6E7"/>
<path d="M295.072 243.008C294.876 242.669 294.614 242.372 294.301 242.136C293.987 241.9 293.629 241.729 293.248 241.634C291.569 241.213 289.827 241.101 288.107 241.304C288.552 238.804 288.388 236.235 287.628 233.811C287.407 233.121 286.935 232.539 286.304 232.176C285.674 231.814 284.931 231.698 284.219 231.851C282.507 232.228 280.874 232.897 279.392 233.829C278.211 231.355 276.455 229.195 274.27 227.527C273.761 227.144 273.139 226.936 272.501 226.936C271.862 226.936 271.241 227.144 270.732 227.527C268.547 229.195 266.791 231.355 265.61 233.829C264.128 232.897 262.494 232.228 260.782 231.851C260.071 231.698 259.327 231.814 258.697 232.176C258.067 232.539 257.595 233.121 257.373 233.811C256.614 236.235 256.449 238.804 256.894 241.304C255.175 241.101 253.433 241.213 251.754 241.634C251.373 241.729 251.015 241.9 250.702 242.135C250.389 242.371 250.126 242.666 249.93 243.005C249.734 243.343 249.609 243.717 249.561 244.105C249.514 244.492 249.545 244.886 249.653 245.261C250.298 247.569 252.288 251.985 258.331 255.447C264.375 258.91 269.645 258.891 272.482 258.891H272.519C275.357 258.891 280.663 258.891 286.67 255.447C292.677 252.003 294.704 247.569 295.349 245.261C295.456 244.886 295.486 244.494 295.439 244.107C295.391 243.72 295.267 243.346 295.072 243.008ZM284.828 234.727C285.343 236.266 285.823 239.032 284.772 242.586L284.717 242.788C284.29 244.164 283.703 245.486 282.967 246.727C282.073 248.26 280.996 249.681 279.76 250.959C280.7 248.76 281.345 246.067 281.345 242.769C281.36 240.687 281.069 238.613 280.479 236.614C281.791 235.71 283.268 235.069 284.828 234.727ZM272.501 229.872C274.27 231.191 278.397 235.075 278.397 242.769C278.397 250.464 274.214 254.421 272.501 255.667C270.787 254.421 266.605 250.556 266.605 242.769C266.605 234.983 270.732 231.191 272.501 229.872ZM260.174 234.727C261.733 235.069 263.21 235.71 264.522 236.614C263.933 238.613 263.641 240.687 263.656 242.769C263.656 246.067 264.301 248.76 265.241 250.959C264.005 249.681 262.929 248.26 262.035 246.727C261.295 245.482 260.707 244.153 260.285 242.769L260.229 242.605C259.161 239.032 259.658 236.266 260.174 234.727ZM252.472 244.473C253.615 244.18 255.402 243.96 257.705 244.363C258.173 245.695 258.771 246.977 259.492 248.192C261.072 250.907 263.147 253.305 265.61 255.264C263.574 254.747 261.621 253.951 259.806 252.901C254.683 249.951 253.025 246.342 252.472 244.473ZM285.196 252.901C283.38 253.951 281.427 254.747 279.392 255.264C281.855 253.305 283.929 250.907 285.509 248.192C286.23 246.977 286.829 245.695 287.297 244.363C289.022 244.034 290.798 244.065 292.511 244.455C291.977 246.342 290.318 249.951 285.196 252.901Z" fill="#FFF6E7"/>
<path d="M357.072 128.008C356.876 127.669 356.614 127.372 356.301 127.136C355.987 126.9 355.629 126.729 355.248 126.634C353.569 126.213 351.827 126.101 350.107 126.304C350.552 123.804 350.388 121.235 349.628 118.811C349.407 118.121 348.935 117.539 348.304 117.176C347.674 116.814 346.931 116.698 346.219 116.851C344.507 117.228 342.874 117.897 341.392 118.829C340.211 116.355 338.455 114.195 336.27 112.527C335.761 112.144 335.139 111.936 334.501 111.936C333.862 111.936 333.241 112.144 332.732 112.527C330.547 114.195 328.791 116.355 327.61 118.829C326.128 117.897 324.494 117.228 322.782 116.851C322.071 116.698 321.327 116.814 320.697 117.176C320.067 117.539 319.595 118.121 319.373 118.811C318.614 121.235 318.449 123.804 318.894 126.304C317.175 126.101 315.433 126.213 313.754 126.634C313.373 126.729 313.015 126.9 312.702 127.135C312.389 127.371 312.126 127.666 311.93 128.005C311.734 128.343 311.609 128.717 311.561 129.105C311.514 129.492 311.545 129.886 311.653 130.261C312.298 132.569 314.288 136.985 320.331 140.447C326.375 143.91 331.645 143.891 334.482 143.891H334.519C337.357 143.891 342.663 143.891 348.67 140.447C354.677 137.003 356.704 132.569 357.349 130.261C357.456 129.886 357.486 129.494 357.439 129.107C357.391 128.72 357.267 128.346 357.072 128.008ZM346.828 119.727C347.343 121.266 347.823 124.032 346.772 127.586L346.717 127.788C346.29 129.164 345.703 130.486 344.967 131.727C344.073 133.26 342.996 134.681 341.76 135.959C342.7 133.76 343.345 131.067 343.345 127.769C343.36 125.687 343.069 123.613 342.479 121.614C343.791 120.71 345.268 120.069 346.828 119.727ZM334.501 114.872C336.27 116.191 340.397 120.075 340.397 127.769C340.397 135.464 336.214 139.421 334.501 140.667C332.787 139.421 328.605 135.556 328.605 127.769C328.605 119.983 332.732 116.191 334.501 114.872ZM322.174 119.727C323.733 120.069 325.21 120.71 326.522 121.614C325.933 123.613 325.641 125.687 325.656 127.769C325.656 131.067 326.301 133.76 327.241 135.959C326.005 134.681 324.929 133.26 324.035 131.727C323.295 130.482 322.707 129.153 322.285 127.769L322.229 127.605C321.161 124.032 321.658 121.266 322.174 119.727ZM314.472 129.473C315.615 129.18 317.402 128.96 319.705 129.363C320.173 130.695 320.771 131.977 321.492 133.192C323.072 135.907 325.147 138.305 327.61 140.264C325.574 139.747 323.621 138.951 321.806 137.901C316.683 134.951 315.025 131.342 314.472 129.473ZM347.196 137.901C345.38 138.951 343.427 139.747 341.392 140.264C343.855 138.305 345.929 135.907 347.509 133.192C348.23 131.977 348.829 130.695 349.297 129.363C351.022 129.034 352.798 129.065 354.511 129.455C353.977 131.342 352.318 134.951 347.196 137.901Z" fill="#FFF6E7"/>
<path d="M85.5938 1.34151C85.2548 1.53728 84.9584 1.79967 84.7223 2.11306C84.4863 2.42645 84.3154 2.78442 84.2198 3.16565C83.7993 4.8447 83.6875 6.58692 83.89 8.3064C81.3901 7.86155 78.8207 8.02583 76.397 8.78546C75.7075 9.00715 75.1249 9.47905 74.7625 10.1092C74.4001 10.7394 74.284 11.4826 74.4367 12.1942C74.8137 13.9063 75.4832 15.5397 76.4153 17.0217C73.9409 18.2031 71.7809 19.9588 70.1131 22.1441C69.7297 22.6531 69.5222 23.2743 69.5222 23.9129C69.5222 24.5515 69.7297 25.1727 70.1131 25.6818C71.7809 27.8671 73.9409 29.6227 76.4153 30.8041C75.4832 32.2861 74.8137 33.9195 74.4367 35.6316C74.284 36.3432 74.4001 37.0865 74.7625 37.7166C75.1249 38.3468 75.7075 38.8187 76.397 39.0404C78.8207 39.8 81.3901 39.9643 83.89 39.5194C83.6875 41.2389 83.7993 42.9811 84.2198 44.6602C84.3151 45.041 84.4857 45.3986 84.7213 45.7119C84.9568 46.0251 85.2526 46.2874 85.591 46.4834C85.9294 46.6793 86.3035 46.8049 86.6911 46.8525C87.0787 46.9001 87.4718 46.8689 87.8472 46.7607C90.1555 46.1158 94.5707 44.1258 98.0333 38.0822C101.496 32.0386 101.478 26.7689 101.478 23.9313L101.478 23.8945C101.478 21.0569 101.478 15.7504 98.0333 9.7436C94.5891 3.73685 90.1555 1.71002 87.8472 1.06513C87.4722 0.958194 87.0797 0.927558 86.6928 0.975017C86.3059 1.02248 85.9322 1.14707 85.5938 1.34151ZM77.313 11.5862C78.8519 11.0702 81.6183 10.5912 85.1724 11.6414L85.3739 11.6967C86.7504 12.1234 88.0724 12.7109 89.3128 13.4472C90.8465 14.3408 92.2675 15.4173 93.5448 16.6532C91.3464 15.7135 88.6533 15.0686 85.3556 15.0686C83.2727 15.0534 81.1988 15.3451 79.2 15.9346C78.2957 14.6224 77.6547 13.1453 77.313 11.5862ZM72.4581 23.9129C73.7772 22.1441 77.6611 18.0167 85.3556 18.0167C93.0502 18.0167 97.0074 22.1993 98.2531 23.9129C97.0074 25.6265 93.1418 29.8091 85.3556 29.8091C77.5695 29.8091 73.7772 25.6818 72.4581 23.9129ZM77.313 36.2397C77.6547 34.6805 78.2957 33.2034 79.2 31.8912C81.1988 32.4807 83.2727 32.7725 85.3556 32.7572C88.6533 32.7572 91.3464 32.1123 93.5448 31.1726C92.2675 32.4086 90.8465 33.485 89.3128 34.3787C88.0678 35.1186 86.7393 35.7062 85.3556 36.1291L85.1907 36.1844C81.6183 37.2531 78.8519 36.7556 77.313 36.2397ZM87.0594 43.9416C86.7663 42.7992 86.5464 41.0119 86.9495 38.7087C88.2811 38.241 89.5636 37.6423 90.7784 36.9214C93.4927 35.3414 95.8908 33.267 97.8501 30.8041C97.3327 32.8393 96.5373 34.7926 95.4868 36.6082C92.5372 41.7305 88.9281 43.3888 87.0594 43.9416ZM95.4868 11.2177C96.5373 13.0333 97.3327 14.9865 97.8501 17.0217C95.8908 14.5589 93.4927 12.4844 90.7784 10.9044C89.5636 10.1835 88.2811 9.58485 86.9495 9.11713C86.6203 7.39138 86.6515 5.61565 87.0411 3.90267C88.9281 4.43701 92.5372 6.09532 95.4868 11.2177Z" fill="#FFF6E7"/>
<path d="M23.5939 105.342C23.2549 105.537 22.9585 105.8 22.7225 106.113C22.4864 106.426 22.3155 106.784 22.2199 107.166C21.7994 108.845 21.6876 110.587 21.8901 112.306C19.3903 111.862 16.8208 112.026 14.3971 112.785C13.7077 113.007 13.125 113.479 12.7626 114.109C12.4002 114.739 12.2841 115.483 12.4368 116.194C12.8138 117.906 13.4833 119.54 14.4154 121.022C11.941 122.203 9.78098 123.959 8.11321 126.144C7.72982 126.653 7.52234 127.274 7.52234 127.913C7.52234 128.552 7.72982 129.173 8.11321 129.682C9.78098 131.867 11.941 133.623 14.4154 134.804C13.4833 136.286 12.8138 137.919 12.4368 139.632C12.2841 140.343 12.4002 141.086 12.7626 141.717C13.125 142.347 13.7077 142.819 14.3971 143.04C16.8208 143.8 19.3903 143.964 21.8901 143.519C21.6876 145.239 21.7994 146.981 22.2199 148.66C22.3153 149.041 22.4858 149.399 22.7214 149.712C22.9569 150.025 23.2527 150.287 23.5911 150.483C23.9295 150.679 24.3036 150.805 24.6912 150.853C25.0788 150.9 25.4719 150.869 25.8473 150.761C28.1557 150.116 32.5709 148.126 36.0334 142.082C39.496 136.039 39.4776 130.769 39.4776 127.931L39.4776 127.894C39.4776 125.057 39.4776 119.75 36.0334 113.744C32.5892 107.737 28.1557 105.71 25.8473 105.065C25.4723 104.958 25.0798 104.928 24.6929 104.975C24.306 105.022 23.9324 105.147 23.5939 105.342ZM15.3131 115.586C16.852 115.07 19.6184 114.591 23.1725 115.641L23.3741 115.697C24.7505 116.123 26.0725 116.711 27.3129 117.447C28.8467 118.341 30.2676 119.417 31.5449 120.653C29.3465 119.714 26.6534 119.069 23.3557 119.069C21.2728 119.053 19.1989 119.345 17.2001 119.935C16.2958 118.622 15.6549 117.145 15.3131 115.586ZM10.4582 127.913C11.7773 126.144 15.6612 122.017 23.3557 122.017C31.0503 122.017 35.0075 126.199 36.2533 127.913C35.0075 129.626 31.1419 133.809 23.3557 133.809C15.5696 133.809 11.7773 129.682 10.4582 127.913ZM15.3131 140.24C15.6549 138.681 16.2958 137.203 17.2001 135.891C19.1989 136.481 21.2728 136.772 23.3557 136.757C26.6534 136.757 29.3465 136.112 31.5449 135.173C30.2676 136.409 28.8467 137.485 27.3129 138.379C26.0679 139.119 24.7394 139.706 23.3557 140.129L23.1909 140.184C19.6184 141.253 16.852 140.756 15.3131 140.24ZM25.0595 147.942C24.7664 146.799 24.5466 145.012 24.9496 142.709C26.2812 142.241 27.5638 141.642 28.7786 140.921C31.4929 139.341 33.8909 137.267 35.8502 134.804C35.3328 136.839 34.5375 138.793 33.4869 140.608C30.5373 145.731 26.9282 147.389 25.0595 147.942ZM33.4869 115.218C34.5375 117.033 35.3328 118.987 35.8502 121.022C33.8909 118.559 31.4929 116.484 28.7786 114.904C27.5638 114.184 26.2812 113.585 24.9496 113.117C24.6205 111.391 24.6517 109.616 25.0412 107.903C26.9282 108.437 30.5373 110.095 33.4869 115.218Z" fill="#FFF6E7"/>
<path d="M85.5938 220.342C85.2548 220.537 84.9584 220.8 84.7223 221.113C84.4863 221.426 84.3154 221.784 84.2198 222.166C83.7993 223.845 83.6875 225.587 83.89 227.306C81.3901 226.862 78.8207 227.026 76.397 227.785C75.7075 228.007 75.1249 228.479 74.7625 229.109C74.4001 229.739 74.284 230.483 74.4367 231.194C74.8137 232.906 75.4832 234.54 76.4153 236.022C73.9409 237.203 71.7809 238.959 70.1131 241.144C69.7297 241.653 69.5222 242.274 69.5222 242.913C69.5222 243.552 69.7297 244.173 70.1131 244.682C71.7809 246.867 73.9409 248.623 76.4153 249.804C75.4832 251.286 74.8137 252.919 74.4367 254.632C74.284 255.343 74.4001 256.086 74.7625 256.717C75.1249 257.347 75.7075 257.819 76.397 258.04C78.8207 258.8 81.3901 258.964 83.89 258.519C83.6875 260.239 83.7993 261.981 84.2198 263.66C84.3151 264.041 84.4857 264.399 84.7213 264.712C84.9568 265.025 85.2526 265.287 85.591 265.483C85.9294 265.679 86.3035 265.805 86.6911 265.853C87.0787 265.9 87.4718 265.869 87.8472 265.761C90.1555 265.116 94.5707 263.126 98.0333 257.082C101.496 251.039 101.478 245.769 101.478 242.931L101.478 242.894C101.478 240.057 101.478 234.75 98.0333 228.744C94.5891 222.737 90.1555 220.71 87.8472 220.065C87.4722 219.958 87.0797 219.928 86.6928 219.975C86.3059 220.022 85.9322 220.147 85.5938 220.342ZM77.313 230.586C78.8519 230.07 81.6183 229.591 85.1724 230.641L85.3739 230.697C86.7504 231.123 88.0724 231.711 89.3128 232.447C90.8465 233.341 92.2675 234.417 93.5448 235.653C91.3464 234.714 88.6533 234.069 85.3556 234.069C83.2727 234.053 81.1988 234.345 79.2 234.935C78.2957 233.622 77.6547 232.145 77.313 230.586ZM72.4581 242.913C73.7772 241.144 77.6611 237.017 85.3556 237.017C93.0502 237.017 97.0074 241.199 98.2531 242.913C97.0074 244.626 93.1418 248.809 85.3556 248.809C77.5695 248.809 73.7772 244.682 72.4581 242.913ZM77.313 255.24C77.6547 253.681 78.2957 252.203 79.2 250.891C81.1988 251.481 83.2727 251.772 85.3556 251.757C88.6533 251.757 91.3464 251.112 93.5448 250.173C92.2675 251.409 90.8465 252.485 89.3128 253.379C88.0678 254.119 86.7393 254.706 85.3556 255.129L85.1907 255.184C81.6183 256.253 78.8519 255.756 77.313 255.24ZM87.0594 262.942C86.7663 261.799 86.5464 260.012 86.9495 257.709C88.2811 257.241 89.5636 256.642 90.7784 255.921C93.4927 254.341 95.8908 252.267 97.8501 249.804C97.3327 251.839 96.5373 253.793 95.4868 255.608C92.5372 260.731 88.9281 262.389 87.0594 262.942ZM95.4868 230.218C96.5373 232.033 97.3327 233.987 97.8501 236.022C95.8908 233.559 93.4927 231.484 90.7784 229.904C89.5636 229.184 88.2811 228.585 86.9495 228.117C86.6203 226.391 86.6515 224.616 87.0411 222.903C88.9281 223.437 92.5372 225.095 95.4868 230.218Z" fill="#FFF6E7"/>
<path d="M209.594 1.34151C209.255 1.53728 208.958 1.79967 208.722 2.11306C208.486 2.42645 208.315 2.78442 208.22 3.16565C207.799 4.8447 207.687 6.58692 207.89 8.3064C205.39 7.86155 202.821 8.02583 200.397 8.78546C199.708 9.00715 199.125 9.47905 198.762 10.1092C198.4 10.7394 198.284 11.4826 198.437 12.1942C198.814 13.9063 199.483 15.5397 200.415 17.0217C197.941 18.2031 195.781 19.9588 194.113 22.1441C193.73 22.6531 193.522 23.2743 193.522 23.9129C193.522 24.5515 193.73 25.1727 194.113 25.6818C195.781 27.8671 197.941 29.6227 200.415 30.8041C199.483 32.2861 198.814 33.9195 198.437 35.6316C198.284 36.3432 198.4 37.0865 198.762 37.7166C199.125 38.3468 199.708 38.8187 200.397 39.0404C202.821 39.8 205.39 39.9643 207.89 39.5194C207.687 41.2389 207.799 42.9811 208.22 44.6602C208.315 45.041 208.486 45.3986 208.721 45.7119C208.957 46.0251 209.253 46.2874 209.591 46.4834C209.929 46.6793 210.303 46.8049 210.691 46.8525C211.079 46.9001 211.472 46.8689 211.847 46.7607C214.156 46.1158 218.571 44.1258 222.033 38.0822C225.496 32.0386 225.478 26.7689 225.478 23.9313L225.478 23.8945C225.478 21.0569 225.478 15.7504 222.033 9.7436C218.589 3.73685 214.156 1.71002 211.847 1.06513C211.472 0.958194 211.08 0.927558 210.693 0.975017C210.306 1.02248 209.932 1.14707 209.594 1.34151ZM201.313 11.5862C202.852 11.0702 205.618 10.5912 209.172 11.6414L209.374 11.6967C210.75 12.1234 212.072 12.7109 213.313 13.4472C214.847 14.3408 216.267 15.4173 217.545 16.6532C215.346 15.7135 212.653 15.0686 209.356 15.0686C207.273 15.0534 205.199 15.3451 203.2 15.9346C202.296 14.6224 201.655 13.1453 201.313 11.5862ZM196.458 23.9129C197.777 22.1441 201.661 18.0167 209.356 18.0167C217.05 18.0167 221.007 22.1993 222.253 23.9129C221.007 25.6265 217.142 29.8091 209.356 29.8091C201.569 29.8091 197.777 25.6818 196.458 23.9129ZM201.313 36.2397C201.655 34.6805 202.296 33.2034 203.2 31.8912C205.199 32.4807 207.273 32.7725 209.356 32.7572C212.653 32.7572 215.346 32.1123 217.545 31.1726C216.267 32.4086 214.847 33.485 213.313 34.3787C212.068 35.1186 210.739 35.7062 209.356 36.1291L209.191 36.1844C205.618 37.2531 202.852 36.7556 201.313 36.2397ZM211.059 43.9416C210.766 42.7992 210.546 41.0119 210.949 38.7087C212.281 38.241 213.564 37.6423 214.778 36.9214C217.493 35.3414 219.891 33.267 221.85 30.8041C221.333 32.8393 220.537 34.7926 219.487 36.6082C216.537 41.7305 212.928 43.3888 211.059 43.9416ZM219.487 11.2177C220.537 13.0333 221.333 14.9865 221.85 17.0217C219.891 14.5589 217.493 12.4844 214.778 10.9044C213.564 10.1835 212.281 9.58485 210.949 9.11713C210.62 7.39138 210.652 5.61565 211.041 3.90267C212.928 4.43701 216.537 6.09532 219.487 11.2177Z" fill="#FFF6E7"/>
<path d="M147.594 105.342C147.255 105.537 146.958 105.8 146.722 106.113C146.486 106.426 146.315 106.784 146.22 107.166C145.799 108.845 145.687 110.587 145.89 112.306C143.39 111.862 140.821 112.026 138.397 112.785C137.708 113.007 137.125 113.479 136.762 114.109C136.4 114.739 136.284 115.483 136.437 116.194C136.814 117.906 137.483 119.54 138.415 121.022C135.941 122.203 133.781 123.959 132.113 126.144C131.73 126.653 131.522 127.274 131.522 127.913C131.522 128.552 131.73 129.173 132.113 129.682C133.781 131.867 135.941 133.623 138.415 134.804C137.483 136.286 136.814 137.919 136.437 139.632C136.284 140.343 136.4 141.086 136.762 141.717C137.125 142.347 137.708 142.819 138.397 143.04C140.821 143.8 143.39 143.964 145.89 143.519C145.687 145.239 145.799 146.981 146.22 148.66C146.315 149.041 146.486 149.399 146.721 149.712C146.957 150.025 147.253 150.287 147.591 150.483C147.929 150.679 148.303 150.805 148.691 150.853C149.079 150.9 149.472 150.869 149.847 150.761C152.156 150.116 156.571 148.126 160.033 142.082C163.496 136.039 163.478 130.769 163.478 127.931L163.478 127.894C163.478 125.057 163.478 119.75 160.033 113.744C156.589 107.737 152.156 105.71 149.847 105.065C149.472 104.958 149.08 104.928 148.693 104.975C148.306 105.022 147.932 105.147 147.594 105.342ZM139.313 115.586C140.852 115.07 143.618 114.591 147.172 115.641L147.374 115.697C148.75 116.123 150.072 116.711 151.313 117.447C152.847 118.341 154.267 119.417 155.545 120.653C153.346 119.714 150.653 119.069 147.356 119.069C145.273 119.053 143.199 119.345 141.2 119.935C140.296 118.622 139.655 117.145 139.313 115.586ZM134.458 127.913C135.777 126.144 139.661 122.017 147.356 122.017C155.05 122.017 159.007 126.199 160.253 127.913C159.007 129.626 155.142 133.809 147.356 133.809C139.569 133.809 135.777 129.682 134.458 127.913ZM139.313 140.24C139.655 138.681 140.296 137.203 141.2 135.891C143.199 136.481 145.273 136.772 147.356 136.757C150.653 136.757 153.346 136.112 155.545 135.173C154.267 136.409 152.847 137.485 151.313 138.379C150.068 139.119 148.739 139.706 147.356 140.129L147.191 140.184C143.618 141.253 140.852 140.756 139.313 140.24ZM149.059 147.942C148.766 146.799 148.546 145.012 148.949 142.709C150.281 142.241 151.564 141.642 152.778 140.921C155.493 139.341 157.891 137.267 159.85 134.804C159.333 136.839 158.537 138.793 157.487 140.608C154.537 145.731 150.928 147.389 149.059 147.942ZM157.487 115.218C158.537 117.033 159.333 118.987 159.85 121.022C157.891 118.559 155.493 116.484 152.778 114.904C151.564 114.184 150.281 113.585 148.949 113.117C148.62 111.391 148.652 109.616 149.041 107.903C150.928 108.437 154.537 110.095 157.487 115.218Z" fill="#FFF6E7"/>
<path d="M209.594 220.342C209.255 220.537 208.958 220.8 208.722 221.113C208.486 221.426 208.315 221.784 208.22 222.166C207.799 223.845 207.687 225.587 207.89 227.306C205.39 226.862 202.821 227.026 200.397 227.785C199.708 228.007 199.125 228.479 198.762 229.109C198.4 229.739 198.284 230.483 198.437 231.194C198.814 232.906 199.483 234.54 200.415 236.022C197.941 237.203 195.781 238.959 194.113 241.144C193.73 241.653 193.522 242.274 193.522 242.913C193.522 243.552 193.73 244.173 194.113 244.682C195.781 246.867 197.941 248.623 200.415 249.804C199.483 251.286 198.814 252.919 198.437 254.632C198.284 255.343 198.4 256.086 198.762 256.717C199.125 257.347 199.708 257.819 200.397 258.04C202.821 258.8 205.39 258.964 207.89 258.519C207.687 260.239 207.799 261.981 208.22 263.66C208.315 264.041 208.486 264.399 208.721 264.712C208.957 265.025 209.253 265.287 209.591 265.483C209.929 265.679 210.303 265.805 210.691 265.853C211.079 265.9 211.472 265.869 211.847 265.761C214.156 265.116 218.571 263.126 222.033 257.082C225.496 251.039 225.478 245.769 225.478 242.931L225.478 242.894C225.478 240.057 225.478 234.75 222.033 228.744C218.589 222.737 214.156 220.71 211.847 220.065C211.472 219.958 211.08 219.928 210.693 219.975C210.306 220.022 209.932 220.147 209.594 220.342ZM201.313 230.586C202.852 230.07 205.618 229.591 209.172 230.641L209.374 230.697C210.75 231.123 212.072 231.711 213.313 232.447C214.847 233.341 216.267 234.417 217.545 235.653C215.346 234.714 212.653 234.069 209.356 234.069C207.273 234.053 205.199 234.345 203.2 234.935C202.296 233.622 201.655 232.145 201.313 230.586ZM196.458 242.913C197.777 241.144 201.661 237.017 209.356 237.017C217.05 237.017 221.007 241.199 222.253 242.913C221.007 244.626 217.142 248.809 209.356 248.809C201.569 248.809 197.777 244.682 196.458 242.913ZM201.313 255.24C201.655 253.681 202.296 252.203 203.2 250.891C205.199 251.481 207.273 251.772 209.356 251.757C212.653 251.757 215.346 251.112 217.545 250.173C216.267 251.409 214.847 252.485 213.313 253.379C212.068 254.119 210.739 254.706 209.356 255.129L209.191 255.184C205.618 256.253 202.852 255.756 201.313 255.24ZM211.059 262.942C210.766 261.799 210.546 260.012 210.949 257.709C212.281 257.241 213.564 256.642 214.778 255.921C217.493 254.341 219.891 252.267 221.85 249.804C221.333 251.839 220.537 253.793 219.487 255.608C216.537 260.731 212.928 262.389 211.059 262.942ZM219.487 230.218C220.537 232.033 221.333 233.987 221.85 236.022C219.891 233.559 217.493 231.484 214.778 229.904C213.564 229.184 212.281 228.585 210.949 228.117C210.62 226.391 210.652 224.616 211.041 222.903C212.928 223.437 216.537 225.095 219.487 230.218Z" fill="#FFF6E7"/>
<path d="M334.594 1.34151C334.255 1.53728 333.958 1.79967 333.722 2.11306C333.486 2.42645 333.315 2.78442 333.22 3.16565C332.799 4.8447 332.687 6.58692 332.89 8.3064C330.39 7.86155 327.821 8.02583 325.397 8.78546C324.708 9.00715 324.125 9.47905 323.762 10.1092C323.4 10.7394 323.284 11.4826 323.437 12.1942C323.814 13.9063 324.483 15.5397 325.415 17.0217C322.941 18.2031 320.781 19.9588 319.113 22.1441C318.73 22.6531 318.522 23.2743 318.522 23.9129C318.522 24.5515 318.73 25.1727 319.113 25.6818C320.781 27.8671 322.941 29.6227 325.415 30.8041C324.483 32.2861 323.814 33.9195 323.437 35.6316C323.284 36.3432 323.4 37.0865 323.762 37.7166C324.125 38.3468 324.708 38.8187 325.397 39.0404C327.821 39.8 330.39 39.9643 332.89 39.5194C332.687 41.2389 332.799 42.9811 333.22 44.6602C333.315 45.041 333.486 45.3986 333.721 45.7119C333.957 46.0251 334.253 46.2874 334.591 46.4834C334.929 46.6793 335.303 46.8049 335.691 46.8525C336.079 46.9001 336.472 46.8689 336.847 46.7607C339.156 46.1158 343.571 44.1258 347.033 38.0822C350.496 32.0386 350.478 26.7689 350.478 23.9313L350.478 23.8945C350.478 21.0569 350.478 15.7504 347.033 9.7436C343.589 3.73685 339.156 1.71002 336.847 1.06513C336.472 0.958194 336.08 0.927558 335.693 0.975017C335.306 1.02248 334.932 1.14707 334.594 1.34151ZM326.313 11.5862C327.852 11.0702 330.618 10.5912 334.172 11.6414L334.374 11.6967C335.75 12.1234 337.072 12.7109 338.313 13.4472C339.847 14.3408 341.267 15.4173 342.545 16.6532C340.346 15.7135 337.653 15.0686 334.356 15.0686C332.273 15.0534 330.199 15.3451 328.2 15.9346C327.296 14.6224 326.655 13.1453 326.313 11.5862ZM321.458 23.9129C322.777 22.1441 326.661 18.0167 334.356 18.0167C342.05 18.0167 346.007 22.1993 347.253 23.9129C346.007 25.6265 342.142 29.8091 334.356 29.8091C326.569 29.8091 322.777 25.6818 321.458 23.9129ZM326.313 36.2397C326.655 34.6805 327.296 33.2034 328.2 31.8912C330.199 32.4807 332.273 32.7725 334.356 32.7572C337.653 32.7572 340.346 32.1123 342.545 31.1726C341.267 32.4086 339.847 33.485 338.313 34.3787C337.068 35.1186 335.739 35.7062 334.356 36.1291L334.191 36.1844C330.618 37.2531 327.852 36.7556 326.313 36.2397ZM336.059 43.9416C335.766 42.7992 335.546 41.0119 335.949 38.7087C337.281 38.241 338.564 37.6423 339.778 36.9214C342.493 35.3414 344.891 33.267 346.85 30.8041C346.333 32.8393 345.537 34.7926 344.487 36.6082C341.537 41.7305 337.928 43.3888 336.059 43.9416ZM344.487 11.2177C345.537 13.0333 346.333 14.9865 346.85 17.0217C344.891 14.5589 342.493 12.4844 339.778 10.9044C338.564 10.1835 337.281 9.58485 335.949 9.11713C335.62 7.39138 335.652 5.61565 336.041 3.90267C337.928 4.43701 341.537 6.09532 344.487 11.2177Z" fill="#FFF6E7"/>
<path d="M272.594 105.342C272.255 105.537 271.958 105.8 271.722 106.113C271.486 106.426 271.315 106.784 271.22 107.166C270.799 108.845 270.687 110.587 270.89 112.306C268.39 111.862 265.821 112.026 263.397 112.785C262.708 113.007 262.125 113.479 261.762 114.109C261.4 114.739 261.284 115.483 261.437 116.194C261.814 117.906 262.483 119.54 263.415 121.022C260.941 122.203 258.781 123.959 257.113 126.144C256.73 126.653 256.522 127.274 256.522 127.913C256.522 128.552 256.73 129.173 257.113 129.682C258.781 131.867 260.941 133.623 263.415 134.804C262.483 136.286 261.814 137.919 261.437 139.632C261.284 140.343 261.4 141.086 261.762 141.717C262.125 142.347 262.708 142.819 263.397 143.04C265.821 143.8 268.39 143.964 270.89 143.519C270.687 145.239 270.799 146.981 271.22 148.66C271.315 149.041 271.486 149.399 271.721 149.712C271.957 150.025 272.253 150.287 272.591 150.483C272.929 150.679 273.303 150.805 273.691 150.853C274.079 150.9 274.472 150.869 274.847 150.761C277.156 150.116 281.571 148.126 285.033 142.082C288.496 136.039 288.478 130.769 288.478 127.931L288.478 127.894C288.478 125.057 288.478 119.75 285.033 113.744C281.589 107.737 277.156 105.71 274.847 105.065C274.472 104.958 274.08 104.928 273.693 104.975C273.306 105.022 272.932 105.147 272.594 105.342ZM264.313 115.586C265.852 115.07 268.618 114.591 272.172 115.641L272.374 115.697C273.75 116.123 275.072 116.711 276.313 117.447C277.847 118.341 279.267 119.417 280.545 120.653C278.346 119.714 275.653 119.069 272.356 119.069C270.273 119.053 268.199 119.345 266.2 119.935C265.296 118.622 264.655 117.145 264.313 115.586ZM259.458 127.913C260.777 126.144 264.661 122.017 272.356 122.017C280.05 122.017 284.007 126.199 285.253 127.913C284.007 129.626 280.142 133.809 272.356 133.809C264.569 133.809 260.777 129.682 259.458 127.913ZM264.313 140.24C264.655 138.681 265.296 137.203 266.2 135.891C268.199 136.481 270.273 136.772 272.356 136.757C275.653 136.757 278.346 136.112 280.545 135.173C279.267 136.409 277.847 137.485 276.313 138.379C275.068 139.119 273.739 139.706 272.356 140.129L272.191 140.184C268.618 141.253 265.852 140.756 264.313 140.24ZM274.059 147.942C273.766 146.799 273.546 145.012 273.949 142.709C275.281 142.241 276.564 141.642 277.778 140.921C280.493 139.341 282.891 137.267 284.85 134.804C284.333 136.839 283.537 138.793 282.487 140.608C279.537 145.731 275.928 147.389 274.059 147.942ZM282.487 115.218C283.537 117.033 284.333 118.987 284.85 121.022C282.891 118.559 280.493 116.484 277.778 114.904C276.564 114.184 275.281 113.585 273.949 113.117C273.62 111.391 273.652 109.616 274.041 107.903C275.928 108.437 279.537 110.095 282.487 115.218Z" fill="#FFF6E7"/>
<path d="M334.594 220.342C334.255 220.537 333.958 220.8 333.722 221.113C333.486 221.426 333.315 221.784 333.22 222.166C332.799 223.845 332.687 225.587 332.89 227.306C330.39 226.862 327.821 227.026 325.397 227.785C324.708 228.007 324.125 228.479 323.762 229.109C323.4 229.739 323.284 230.483 323.437 231.194C323.814 232.906 324.483 234.54 325.415 236.022C322.941 237.203 320.781 238.959 319.113 241.144C318.73 241.653 318.522 242.274 318.522 242.913C318.522 243.552 318.73 244.173 319.113 244.682C320.781 246.867 322.941 248.623 325.415 249.804C324.483 251.286 323.814 252.919 323.437 254.632C323.284 255.343 323.4 256.086 323.762 256.717C324.125 257.347 324.708 257.819 325.397 258.04C327.821 258.8 330.39 258.964 332.89 258.519C332.687 260.239 332.799 261.981 333.22 263.66C333.315 264.041 333.486 264.399 333.721 264.712C333.957 265.025 334.253 265.287 334.591 265.483C334.929 265.679 335.303 265.805 335.691 265.853C336.079 265.9 336.472 265.869 336.847 265.761C339.156 265.116 343.571 263.126 347.033 257.082C350.496 251.039 350.478 245.769 350.478 242.931L350.478 242.894C350.478 240.057 350.478 234.75 347.033 228.744C343.589 222.737 339.156 220.71 336.847 220.065C336.472 219.958 336.08 219.928 335.693 219.975C335.306 220.022 334.932 220.147 334.594 220.342ZM326.313 230.586C327.852 230.07 330.618 229.591 334.172 230.641L334.374 230.697C335.75 231.123 337.072 231.711 338.313 232.447C339.847 233.341 341.267 234.417 342.545 235.653C340.346 234.714 337.653 234.069 334.356 234.069C332.273 234.053 330.199 234.345 328.2 234.935C327.296 233.622 326.655 232.145 326.313 230.586ZM321.458 242.913C322.777 241.144 326.661 237.017 334.356 237.017C342.05 237.017 346.007 241.199 347.253 242.913C346.007 244.626 342.142 248.809 334.356 248.809C326.569 248.809 322.777 244.682 321.458 242.913ZM326.313 255.24C326.655 253.681 327.296 252.203 328.2 250.891C330.199 251.481 332.273 251.772 334.356 251.757C337.653 251.757 340.346 251.112 342.545 250.173C341.267 251.409 339.847 252.485 338.313 253.379C337.068 254.119 335.739 254.706 334.356 255.129L334.191 255.184C330.618 256.253 327.852 255.756 326.313 255.24ZM336.059 262.942C335.766 261.799 335.546 260.012 335.949 257.709C337.281 257.241 338.564 256.642 339.778 255.921C342.493 254.341 344.891 252.267 346.85 249.804C346.333 251.839 345.537 253.793 344.487 255.608C341.537 260.731 337.928 262.389 336.059 262.942ZM344.487 230.218C345.537 232.033 346.333 233.987 346.85 236.022C344.891 233.559 342.493 231.484 339.778 229.904C338.564 229.184 337.281 228.585 335.949 228.117C335.62 226.391 335.652 224.616 336.041 222.903C337.928 223.437 341.537 225.095 344.487 230.218Z" fill="#FFF6E7"/>
</svg>
