<svg width="48" height="48" viewBox="0 0 48 48" fill="none" xmlns="http://www.w3.org/2000/svg">
<path d="M17.5985 31.0246C17.3837 30.9973 17.1871 30.8862 17.0516 30.7157C16.916 30.5452 16.8525 30.3291 16.875 30.1146C17.032 29.0223 17.4046 27.9755 17.9711 27.0348C18.8346 25.5878 20.5555 23.7211 23.8271 23.0895C28.9333 22.1111 29.4831 17.6669 29.496 17.4789C29.5232 17.2641 29.6327 17.0695 29.8015 16.936C29.9704 16.8025 30.1855 16.7405 30.4016 16.7629C30.6164 16.7903 30.813 16.9014 30.9486 17.0719C31.0841 17.2424 31.1476 17.4585 31.1251 17.673C30.9681 18.7653 30.5955 19.8121 30.029 20.7528C29.6837 21.3322 29.2677 21.8657 28.7905 22.3414C27.786 23.3459 26.3107 24.2815 24.173 24.6981C19.0668 25.6765 18.517 30.1207 18.5041 30.3087C18.477 30.5235 18.3675 30.7181 18.1986 30.8516C18.0297 30.9851 17.8146 31.0471 17.5985 31.0246Z" fill="#ED9700"/>
<path d="M16.8688 17.4923C16.8962 17.2775 17.0073 17.0809 17.1778 16.9454C17.3483 16.8098 17.5644 16.7463 17.7789 16.7688C18.8712 16.9258 19.918 17.2984 20.8587 17.8649C22.3056 18.7284 24.1724 20.4493 24.804 23.7209C25.7824 28.8271 30.2266 29.3769 30.4146 29.3898C30.6294 29.417 30.824 29.5265 30.9575 29.6953C31.091 29.8642 31.153 30.0793 31.1305 30.2954C31.1032 30.5102 30.9921 30.7068 30.8216 30.8424C30.6511 30.9779 30.435 31.0414 30.2205 31.0189C29.1282 30.8619 28.0814 30.4893 27.1407 29.9228C26.5613 29.5775 26.0278 29.1615 25.5521 28.6843C24.5476 27.6798 23.612 26.2045 23.1954 24.0668C22.217 18.9606 17.7728 18.4108 17.5848 18.3979C17.37 18.3708 17.1754 18.2613 17.0419 18.0924C16.9084 17.9235 16.8464 17.7084 16.8688 17.4923Z" fill="#ED9700"/>
</svg>
