<svg width="26" height="20" viewBox="0 0 26 20" fill="none" xmlns="http://www.w3.org/2000/svg">
<path d="M0.574438 4.32112C0.402375 4.09876 0.32382 3.81625 0.355911 3.53525C0.388001 3.25424 0.528134 2.99754 0.745734 2.82115C1.89287 1.96242 3.19612 1.34335 4.58012 0.999756C6.70155 0.464052 9.99569 0.330127 13.5797 2.75419C19.1666 6.54429 23.752 2.96847 23.9365 2.80775C24.1587 2.63543 24.4379 2.55729 24.7155 2.58975C24.9932 2.62222 25.2476 2.76276 25.4255 2.98186C25.5975 3.20422 25.6761 3.48672 25.644 3.76773C25.6119 4.04873 25.4718 4.30544 25.2542 4.48183C24.107 5.34056 22.8038 5.95962 21.4198 6.30322C20.5708 6.5181 19.699 6.62605 18.824 6.62464C16.9793 6.62464 14.7656 6.12912 12.4202 4.54879C6.83331 0.758689 2.24786 4.33451 2.06339 4.49522C1.84123 4.66755 1.56202 4.74569 1.28439 4.71322C1.00675 4.68076 0.752291 4.54022 0.574438 4.32112ZM23.9365 9.15677C23.752 9.31749 19.1666 12.8933 13.5797 9.1032C9.99569 6.67915 6.70155 6.81307 4.58012 7.34878C3.19612 7.69237 1.89287 8.31144 0.745734 9.17017C0.528134 9.34656 0.388001 9.60326 0.355911 9.88427C0.32382 10.1653 0.402375 10.4478 0.574438 10.6701C0.752291 10.8892 1.00675 11.0298 1.28439 11.0622C1.56202 11.0947 1.84123 11.0166 2.06339 10.8442C2.24786 10.6835 6.83331 7.10771 12.4202 10.8978C14.7656 12.4781 16.9793 12.9737 18.824 12.9737C19.699 12.9751 20.5708 12.8671 21.4198 12.6522C22.8038 12.3086 24.107 11.6896 25.2542 10.8308C25.4718 10.6545 25.6119 10.3978 25.644 10.1167C25.6761 9.83574 25.5975 9.55324 25.4255 9.33088C25.2476 9.11178 24.9932 8.97124 24.7155 8.93877C24.4379 8.90631 24.1587 8.98445 23.9365 9.15677ZM23.9365 15.5058C23.752 15.6665 19.1666 19.2423 13.5797 15.4522C9.99569 13.0282 6.70155 13.1621 4.58012 13.6978C3.19612 14.0414 1.89287 14.6605 0.745734 15.5192C0.528134 15.6956 0.388001 15.9523 0.355911 16.2333C0.32382 16.5143 0.402375 16.7968 0.574438 17.0192C0.752291 17.2383 1.00675 17.3788 1.28439 17.4113C1.56202 17.4437 1.84123 17.3656 2.06339 17.1933C2.24786 17.0326 6.83331 13.4567 12.4202 17.2468C14.7656 18.8272 16.9793 19.3227 18.824 19.3227C21.137 19.321 23.3892 18.5704 25.2542 17.1799C25.4718 17.0035 25.6119 16.7468 25.644 16.4658C25.6761 16.1848 25.5975 15.9023 25.4255 15.6799C25.2476 15.4608 24.9932 15.3203 24.7155 15.2878C24.4379 15.2553 24.1587 15.3335 23.9365 15.5058Z" fill="#ED9700"/>
</svg>
