<svg width="54" height="40" viewBox="0 0 54 40" fill="none" xmlns="http://www.w3.org/2000/svg">
<path d="M0.946587 7.89603C0.585808 7.42979 0.421093 6.83744 0.488381 6.24823C0.555668 5.65902 0.849496 5.12077 1.30576 4.75092C3.71105 2.95034 6.44369 1.65229 9.34564 0.931844C13.7938 -0.191412 20.7009 -0.472226 28.2159 4.61051C39.9304 12.5575 49.5451 5.05981 49.9319 4.72283C50.3977 4.36149 50.9832 4.19766 51.5653 4.26573C52.1474 4.3338 52.681 4.62848 53.0539 5.08789C53.4147 5.55414 53.5794 6.14648 53.5121 6.73569C53.4448 7.3249 53.151 7.86315 52.6947 8.23301C50.2894 10.0336 47.5568 11.3316 44.6548 12.0521C42.8746 12.5026 41.0466 12.729 39.212 12.726C35.344 12.726 30.7025 11.687 25.7846 8.37341C14.0701 0.426378 4.4554 7.92411 4.0686 8.26109C3.60279 8.62243 3.01734 8.78626 2.4352 8.71819C1.85306 8.65012 1.31951 8.35544 0.946587 7.89603ZM49.9319 18.0354C49.5451 18.3724 39.9304 25.8701 28.2159 17.923C20.7009 12.8403 13.7938 13.1211 9.34564 14.2444C6.44369 14.9648 3.71105 16.2629 1.30576 18.0635C0.849496 18.4333 0.555668 18.9716 0.488381 19.5608C0.421093 20.15 0.585808 20.7423 0.946587 21.2086C1.31951 21.668 1.85306 21.9627 2.4352 22.0307C3.01734 22.0988 3.60279 21.935 4.0686 21.5736C4.4554 21.2367 14.0701 13.7389 25.7846 21.686C30.7025 24.9996 35.344 26.0386 39.212 26.0386C41.0466 26.0415 42.8746 25.8152 44.6548 25.3646C47.5568 24.6442 50.2894 23.3461 52.6947 21.5456C53.151 21.1757 53.4448 20.6374 53.5121 20.0482C53.5794 19.459 53.4147 18.8667 53.0539 18.4004C52.681 17.941 52.1474 17.6463 51.5653 17.5783C50.9832 17.5102 50.3977 17.674 49.9319 18.0354ZM49.9319 31.3479C49.5451 31.6849 39.9304 39.1826 28.2159 31.2356C20.7009 26.1529 13.7938 26.4337 9.34564 27.5569C6.44369 28.2774 3.71105 29.5754 1.30576 31.376C0.849496 31.7459 0.555668 32.2841 0.488381 32.8733C0.421093 33.4625 0.585808 34.0549 0.946587 34.5211C1.31951 34.9805 1.85306 35.2752 2.4352 35.3433C3.01734 35.4114 3.60279 35.2475 4.0686 34.8862C4.4554 34.5492 14.0701 27.0515 25.7846 34.9985C30.7025 38.3121 35.344 39.3511 39.212 39.3511C44.0618 39.3476 48.7844 37.7738 52.6947 34.8581C53.151 34.4882 53.4448 33.95 53.5121 33.3608C53.5794 32.7716 53.4147 32.1792 53.0539 31.713C52.681 31.2536 52.1474 30.9589 51.5653 30.8908C50.9832 30.8227 50.3977 30.9866 49.9319 31.3479Z" fill="#233D91"/>
</svg>
