<svg width="58" height="40" viewBox="0 0 58 40" fill="none" xmlns="http://www.w3.org/2000/svg">
<path d="M56.9224 19.9194C56.6802 19.5 56.3556 19.1334 55.968 18.8414C55.5803 18.5494 55.1375 18.338 54.6659 18.2197C52.5889 17.6995 50.4337 17.5613 48.3067 17.8118C48.857 14.7194 48.6538 11.541 47.7141 8.54277C47.4398 7.68993 46.8561 6.96916 46.0766 6.52088C45.2971 6.0726 44.3776 5.92893 43.4974 6.11787C41.3795 6.58427 39.3589 7.4124 37.5257 8.56543C36.0642 5.50454 33.8925 2.83256 31.1893 0.769493C30.5595 0.295238 29.7911 0.0385742 29.0011 0.0385742C28.2111 0.0385742 27.4428 0.295238 26.813 0.769493C24.1098 2.83256 21.938 5.50454 20.4766 8.56543C18.6433 7.4124 16.6228 6.58427 14.5049 6.11787C13.6246 5.92893 12.7052 6.0726 11.9257 6.52088C11.1462 6.96916 10.5624 7.68993 10.2882 8.54277C9.34851 11.541 9.1453 14.7194 9.69558 17.8118C7.56856 17.5613 5.4134 17.6995 3.33638 18.2197C2.86529 18.3377 2.42288 18.5487 2.03544 18.8401C1.64799 19.1315 1.32342 19.4973 1.08103 19.9159C0.838628 20.3345 0.683349 20.7973 0.624419 21.2768C0.565489 21.7562 0.604111 22.2426 0.737989 22.7069C1.53574 25.5624 3.99737 31.0241 11.4734 35.3073C18.9495 39.5906 25.4682 39.5679 28.9783 39.5679H29.0239C32.534 39.5679 39.0984 39.5679 46.5288 35.3073C53.9593 31.0467 56.4665 25.5624 57.2643 22.7069C57.3966 22.243 57.4345 21.7575 57.3758 21.2789C57.317 20.8003 57.1629 20.3381 56.9224 19.9194ZM44.2496 9.6759C44.8878 11.5796 45.4804 15.0016 44.1812 19.3982L44.1128 19.6475C43.585 21.3502 42.8583 22.9855 41.9475 24.5199C40.842 26.4172 39.5104 28.1749 37.9815 29.755C39.144 27.0355 39.9417 23.7041 39.9417 19.6248C39.9606 17.0482 39.5996 14.4827 38.8704 12.0102C40.4937 10.8916 42.3209 10.0987 44.2496 9.6759ZM29.0011 3.67031C31.1893 5.30202 36.2949 10.1065 36.2949 19.6248C36.2949 29.1431 31.1209 34.0382 29.0011 35.5793C26.8814 34.0382 21.7074 29.2564 21.7074 19.6248C21.7074 9.99318 26.813 5.30202 29.0011 3.67031ZM13.7527 9.6759C15.6814 10.0987 17.5086 10.8916 19.1318 12.0102C18.4026 14.4827 18.0417 17.0482 18.0606 19.6248C18.0606 23.7041 18.8583 27.0355 20.0208 29.755C18.4918 28.1749 17.1602 26.4172 16.0548 24.5199C15.1395 22.9798 14.4126 21.3364 13.8895 19.6248L13.8211 19.4208C12.4991 15.0016 13.1145 11.5796 13.7527 9.6759ZM4.2253 21.7324C5.63845 21.3698 7.84936 21.0979 10.6985 21.5964C11.277 23.2437 12.0176 24.8302 12.9094 26.3329C14.8638 29.6906 17.43 32.657 20.4766 35.0807C17.959 34.4407 15.5428 33.4568 13.2969 32.1572C6.96044 28.5085 4.90908 24.044 4.2253 21.7324ZM44.7054 32.1572C42.4595 33.4568 40.0433 34.4407 37.5257 35.0807C40.5723 32.657 43.1384 29.6906 45.0929 26.3329C45.9847 24.8302 46.7252 23.2437 47.3038 21.5964C49.4386 21.1893 51.6352 21.2279 53.7542 21.7097C53.0932 24.044 51.0418 28.5085 44.7054 32.1572Z" fill="#233D91"/>
</svg>
