<svg width="686" height="899" viewBox="0 0 686 899" fill="none" xmlns="http://www.w3.org/2000/svg">
<path d="M371.703 0.196561L273.883 449.887L390.148 481.484L685.423 314.684L371.703 0.196561Z" fill="#233D91"/>
<path d="M371.698 0.204895L273.879 449.887L0.316528 375.535L371.698 0.204895Z" fill="#6C8EFE"/>
<path d="M371.132 898.49L273.879 449.883L0.320557 375.539L371.132 898.49Z" fill="#233D91"/>
<path d="M371.132 898.481L390.136 481.488L685.429 314.593L371.132 898.481Z" fill="#000F41"/>
<path d="M371.131 898.508L273.879 449.879L390.141 481.484L371.131 898.508Z" fill="#000F41"/>
<path d="M528.413 302.296C542.352 369.013 510.879 416.267 510.879 416.267H537.18C553.662 365.418 545.947 329.386 541.563 311.063L528.413 302.296ZM560.5 286.164C561.99 288.005 563.481 289.934 564.62 291.951C571.764 303.243 575.084 316.535 574.089 329.86C573.094 343.186 567.838 355.837 559.097 365.944C562.885 356.762 564.423 346.808 563.585 336.911C562.746 327.013 559.554 317.46 554.275 309.046C553.574 307.907 552.785 306.942 552.084 305.89C547.043 298.854 540.594 292.943 533.147 288.531C520.523 292.561 509.507 300.499 501.69 311.199C493.874 321.9 489.662 334.808 489.662 348.059C489.662 354.547 490.627 360.772 492.38 366.558C484.779 355.984 480.699 343.285 480.72 330.262C480.72 309.66 490.715 291.425 506.057 280.027C493.345 279.063 479.843 281.869 468.096 289.145C462.66 292.74 457.926 296.86 453.893 301.507C458.715 289.847 467.044 279.414 478.441 272.225C491.591 263.984 506.495 261.266 520.873 263.37C517.279 258.461 512.895 253.814 507.635 249.694C502.55 246.011 497.027 243.031 491.241 240.927C503.865 241.277 516.49 245.31 527.273 253.463C532.796 257.584 537.18 262.581 540.687 267.841C541.563 267.841 542.352 267.754 543.229 267.754C571.283 267.754 595.042 286.252 602.932 311.764C598 304.809 591.686 298.946 584.385 294.541C577.084 290.136 568.953 287.285 560.5 286.164Z" fill="#000F41"/>
</svg>
