<svg width="34" height="25" viewBox="0 0 34 25" fill="none" xmlns="http://www.w3.org/2000/svg">
<path d="M32.9526 19.7866C33.1737 20.0723 33.2746 20.4352 33.2334 20.7963C33.1922 21.1573 33.0121 21.4871 32.7325 21.7138C31.2587 22.8171 29.5843 23.6125 27.8061 24.0539C25.0805 24.7422 20.8481 24.9143 16.2433 21.7998C9.06524 16.9302 3.1738 21.5245 2.93679 21.731C2.65136 21.9524 2.29262 22.0528 1.93591 22.0111C1.5792 21.9694 1.25227 21.7888 1.02377 21.5073C0.802696 21.2216 0.701767 20.8586 0.743 20.4976C0.784229 20.1366 0.964271 19.8067 1.24385 19.5801C2.71769 18.4768 4.39213 17.6814 6.17031 17.24C7.26115 16.9639 8.38125 16.8252 9.5054 16.827C11.8755 16.827 14.7197 17.4637 17.7331 19.4941C24.9112 24.3636 30.8026 19.7694 31.0396 19.5629C31.325 19.3415 31.6838 19.2411 32.0405 19.2828C32.3972 19.3245 32.7241 19.5051 32.9526 19.7866ZM2.93679 13.5737C3.1738 13.3672 9.06524 8.77296 16.2433 13.6425C20.8481 16.757 25.0805 16.5849 27.8061 15.8966C29.5843 15.4552 31.2587 14.6598 32.7325 13.5565C33.0121 13.3299 33.1922 13 33.2334 12.639C33.2746 12.278 33.1737 11.915 32.9526 11.6293C32.7241 11.3478 32.3972 11.1672 32.0405 11.1255C31.6838 11.0838 31.325 11.1842 31.0396 11.4056C30.8026 11.6121 24.9112 16.2064 17.7331 11.3368C14.7197 9.30637 11.8755 8.66972 9.5054 8.66972C8.38125 8.66791 7.26115 8.8066 6.17031 9.08268C4.39213 9.52414 2.71769 10.3195 1.24385 11.4228C0.96427 11.6495 0.784228 11.9793 0.742999 12.3403C0.701766 12.7013 0.802695 13.0643 1.02376 13.35C1.25227 13.6315 1.5792 13.8121 1.93591 13.8538C2.29262 13.8955 2.65135 13.7951 2.93679 13.5737ZM2.93678 5.41641C3.1738 5.20992 9.06523 0.615669 16.2433 5.48523C20.8481 8.59969 25.0805 8.42762 27.8061 7.73934C29.5843 7.29788 31.2587 6.5025 32.7325 5.39919C33.0121 5.17257 33.1922 4.84275 33.2334 4.48171C33.2746 4.12067 33.1737 3.75771 32.9526 3.47202C32.7241 3.19051 32.3972 3.00995 32.0405 2.96824C31.6838 2.92653 31.325 3.02692 31.0396 3.24833C30.8026 3.45481 24.9112 8.04907 17.7331 3.1795C14.7197 1.14908 11.8755 0.512428 9.5054 0.512428C6.53369 0.514588 3.63992 1.47891 1.24385 3.26554C0.96427 3.49217 0.784227 3.82198 0.742998 4.18302C0.701765 4.54406 0.802695 4.90702 1.02376 5.19272C1.25227 5.47422 1.5792 5.65479 1.93591 5.6965C2.29262 5.73821 2.65135 5.63782 2.93678 5.41641Z" fill="#FBEACC"/>
</svg>
