<svg width="71" height="60" viewBox="0 0 71 60" fill="none" xmlns="http://www.w3.org/2000/svg">
<path d="M50.1623 21.4567C50.8636 22.323 51.5648 23.2305 52.1011 24.1793C55.4624 29.4929 57.0245 35.7471 56.5564 42.0171C56.0884 48.2872 53.6151 54.2402 49.5022 58.9959C51.2845 54.6754 52.0084 49.9915 51.6138 45.3346C51.2191 40.6776 49.7173 36.1824 47.2334 32.2234C46.9034 31.6871 46.5321 31.2334 46.2021 30.7383C43.8301 27.4276 40.7958 24.6462 37.2917 22.5705C31.3517 24.4663 26.1682 28.2016 22.4903 33.2365C18.8124 38.2714 16.8304 44.3453 16.8308 50.5805C16.8308 53.6331 17.2845 56.562 18.1096 59.2846C14.5328 54.3092 12.6132 48.334 12.6231 42.2064C12.6231 32.5122 17.3258 23.9318 24.5449 18.569C18.5633 18.1153 12.2106 19.4353 6.6828 22.8592C4.12519 24.5506 1.89759 26.4894 0 28.6758C2.26885 23.1893 6.18778 18.2803 11.5505 14.8976C17.7383 11.02 24.7511 9.74115 31.5164 10.7312C29.8251 8.42109 27.7625 6.23474 25.2874 4.2959C22.8948 2.56332 20.2959 1.16076 17.5733 0.170715C23.5136 0.335723 29.4538 2.23331 34.5278 6.06973C37.1267 8.00857 39.1893 10.3599 40.8393 12.835C41.2519 12.835 41.6231 12.7938 42.0357 12.7938C55.2363 12.7938 66.4155 21.4979 70.1282 33.5022C67.8072 30.2296 64.8362 27.4708 61.4008 25.3982C57.9655 23.3256 54.1396 21.9839 50.1623 21.4567Z" fill="#FBEACC"/>
</svg>
