<svg width="71" height="60" viewBox="0 0 71 60" fill="none" xmlns="http://www.w3.org/2000/svg">
<path d="M20.6759 22.1009C19.9746 22.9672 19.2733 23.8747 18.737 24.8235C15.3758 30.1371 13.8137 36.3913 14.2817 42.6614C14.7497 48.9314 17.223 54.8844 21.3359 59.6401C19.5537 55.3196 18.8297 50.6357 19.2244 45.9788C19.619 41.3218 21.1209 36.8266 23.6047 32.8676C23.9348 32.3314 24.306 31.8776 24.636 31.3826C27.008 28.0719 30.0424 25.2904 33.5464 23.2147C39.4864 25.1105 44.6699 28.8458 48.3478 33.8807C52.0258 38.9156 54.0078 44.9895 54.0074 51.2247C54.0074 54.2774 53.5536 57.2062 52.7286 59.9289C56.3054 54.9535 58.2249 48.9782 58.2151 42.8506C58.2151 33.1564 53.5124 24.576 46.2933 19.2133C52.2748 18.7595 58.6276 20.0796 64.1553 23.5035C66.7129 25.1948 68.9405 27.1336 70.8381 29.32C68.5693 23.8335 64.6504 18.9245 59.2876 15.5419C53.0998 11.6642 46.087 10.3854 39.3217 11.3754C41.013 9.06531 43.0756 6.87897 45.5507 4.94013C47.9433 3.20755 50.5422 1.80499 53.2648 0.814941C47.3246 0.979949 41.3843 2.87753 36.3103 6.71396C33.7115 8.6528 31.6489 11.0042 29.9988 13.4793C29.5863 13.4793 29.215 13.438 28.8025 13.438C15.6019 13.438 4.42263 22.1422 0.709961 34.1464C3.03095 30.8738 6.00194 28.115 9.43729 26.0424C12.8726 23.9699 16.6985 22.6281 20.6759 22.1009Z" fill="#FFF6E7"/>
</svg>
